<svg width="24" height="24" viewBox="0 0 24 24" fill="none" xmlns="http://www.w3.org/2000/svg">
<mask id="mask0_121_4356" style="mask-type:alpha" maskUnits="userSpaceOnUse" x="0" y="0" width="24" height="24">
<rect width="24" height="24" fill="#D9D9D9"/>
</mask>
<g mask="url(#mask0_121_4356)">
<path d="M4.76925 20.5771C4.34742 20.5771 3.98875 20.4294 3.69325 20.1339C3.39775 19.8382 3.25 19.4796 3.25 19.0579V8.59615C3.25 8.17448 3.39775 7.8159 3.69325 7.5204C3.98875 7.2249 4.34742 7.07715 4.76925 7.07715H7.25V4.59615C7.25 4.17448 7.39775 3.8159 7.69325 3.5204C7.98875 3.2249 8.34742 3.07715 8.76925 3.07715H15.2308C15.6526 3.07715 16.0113 3.2249 16.3068 3.5204C16.6023 3.8159 16.75 4.17448 16.75 4.59615V11.0771H19.2308C19.6526 11.0771 20.0113 11.2249 20.3068 11.5204C20.6023 11.8159 20.75 12.1745 20.75 12.5961V19.0579C20.75 19.4796 20.6023 19.8382 20.3068 20.1339C20.0113 20.4294 19.6526 20.5771 19.2308 20.5771H13.25V16.5771H10.75V20.5771H4.76925ZM4.75 19.0771H7.25V16.5771H4.75V19.0771ZM4.75 15.0771H7.25V12.5771H4.75V15.0771ZM4.75 11.0771H7.25V8.57715H4.75V11.0771ZM8.75 15.0771H11.25V12.5771H8.75V15.0771ZM8.75 11.0771H11.25V8.57715H8.75V11.0771ZM8.75 7.07715H11.25V4.57715H8.75V7.07715ZM12.75 15.0771H15.25V12.5771H12.75V15.0771ZM12.75 11.0771H15.25V8.57715H12.75V11.0771ZM12.75 7.07715H15.25V4.57715H12.75V7.07715ZM16.75 19.0771H19.25V16.5771H16.75V19.0771ZM16.75 15.0771H19.25V12.5771H16.75V15.0771Z" fill="#1C1B1F"/>
</g>
</svg>
