<svg width="295" height="295" viewBox="0 0 295 295" fill="none" xmlns="http://www.w3.org/2000/svg">
<path d="M295 225.616H0V225.764H295V225.616Z" fill="#EBEBEB"/>
<path d="M265.441 235.109H245.9V235.257H265.441V235.109Z" fill="#EBEBEB"/>
<path d="M195.42 236.714H190.293V236.862H195.42V236.714Z" fill="#EBEBEB"/>
<path d="M245.31 229.634H233.988V229.782H245.31V229.634Z" fill="#EBEBEB"/>
<path d="M56.4333 230.625H30.9512V230.773H56.4333V230.625Z" fill="#EBEBEB"/>
<path d="M65.4251 230.625H61.6904V230.773H65.4251V230.625Z" fill="#EBEBEB"/>
<path d="M132.839 233.115H77.5674V233.263H132.839V233.115Z" fill="#EBEBEB"/>
<path d="M139.83 199.302H25.9069C25.0145 199.3 24.1591 198.945 23.5286 198.313C22.8981 197.682 22.5439 196.826 22.5439 195.933V35.7894C22.5517 34.902 22.9093 34.0536 23.5389 33.4283C24.1686 32.803 25.0196 32.4515 25.9069 32.45H139.83C140.724 32.45 141.58 32.8049 142.212 33.4367C142.844 34.0685 143.199 34.9254 143.199 35.8189V195.933C143.199 196.827 142.844 197.683 142.212 198.315C141.58 198.947 140.724 199.302 139.83 199.302ZM25.9069 32.568C25.0536 32.5695 24.2357 32.9096 23.6329 33.5136C23.03 34.1175 22.6914 34.936 22.6914 35.7894V195.933C22.6914 196.786 23.03 197.605 23.6329 198.209C24.2357 198.813 25.0536 199.153 25.9069 199.154H139.83C140.684 199.153 141.502 198.813 142.106 198.209C142.71 197.605 143.05 196.787 143.051 195.933V35.7894C143.05 34.9355 142.71 34.117 142.106 33.5132C141.502 32.9094 140.684 32.5695 139.83 32.568H25.9069Z" fill="#EBEBEB"/>
<path d="M267.453 199.302H153.524C152.631 199.3 151.775 198.945 151.144 198.313C150.512 197.682 150.157 196.826 150.155 195.933V35.7894C150.165 34.9015 150.523 34.053 151.154 33.4279C151.785 32.8028 152.636 32.4515 153.524 32.45H267.453C268.34 32.453 269.189 32.8053 269.817 33.4304C270.446 34.0555 270.803 34.903 270.81 35.7894V195.933C270.81 196.824 270.457 197.68 269.828 198.311C269.198 198.943 268.345 199.299 267.453 199.302ZM153.524 32.568C152.67 32.5695 151.852 32.9094 151.248 33.5132C150.644 34.117 150.304 34.9355 150.303 35.7894V195.933C150.304 196.787 150.644 197.605 151.248 198.209C151.852 198.813 152.67 199.153 153.524 199.154H267.453C268.307 199.153 269.126 198.813 269.729 198.209C270.333 197.605 270.673 196.787 270.675 195.933V35.7894C270.673 34.9355 270.333 34.117 269.729 33.5132C269.126 32.9094 268.307 32.5695 267.453 32.568H153.524Z" fill="#EBEBEB"/>
<path d="M106.536 75.0185C106.538 74.2714 106.364 73.5343 106.029 72.8664C105.695 72.1985 105.208 71.6184 104.608 71.1726C104.009 70.7268 103.313 70.4278 102.577 70.2996C101.841 70.1713 101.085 70.2174 100.37 70.4342C100.606 68.8393 100.458 67.2111 99.9374 65.6852C99.4171 64.1592 98.5398 62.7796 97.3786 61.6611C96.2174 60.5426 94.8059 59.7176 93.2615 59.2547C91.7171 58.7919 90.0845 58.7045 88.4996 59C87.5069 57.3464 86.0012 56.0624 84.2116 55.3432C82.422 54.6241 80.4464 54.5093 78.5856 55.0163C76.7247 55.5232 75.0804 56.6242 73.9028 58.1517C72.7253 59.6792 72.0789 61.5495 72.0622 63.4781H71.9147C70.8416 63.4781 69.779 63.6895 68.7876 64.1001C67.7962 64.5108 66.8953 65.1127 66.1365 65.8715C65.3777 66.6303 64.7758 67.5311 64.3652 68.5225C63.9545 69.5139 63.7432 70.5765 63.7432 71.6496C63.7432 72.7227 63.9545 73.7853 64.3652 74.7767C64.7758 75.7681 65.3777 76.6689 66.1365 77.4277C66.8953 78.1865 67.7962 78.7884 68.7876 79.1991C69.779 79.6097 70.8416 79.8211 71.9147 79.8211H101.91C103.154 79.7782 104.332 79.253 105.196 78.3566C106.059 77.4602 106.54 76.263 106.536 75.0185Z" fill="#F0F0F0"/>
<path d="M227.433 124C227.434 123.252 227.259 122.513 226.923 121.844C226.587 121.175 226.099 120.594 225.498 120.147C224.896 119.701 224.199 119.402 223.461 119.274C222.723 119.146 221.966 119.193 221.25 119.41C221.321 118.924 221.356 118.433 221.356 117.941C221.356 116.609 221.095 115.291 220.586 114.06C220.077 112.83 219.33 111.712 218.389 110.77C217.448 109.828 216.33 109.081 215.1 108.571C213.87 108.061 212.551 107.799 211.22 107.799C210.592 107.799 209.966 107.856 209.349 107.97C208.353 106.324 206.847 105.048 205.06 104.335C203.274 103.622 201.303 103.51 199.448 104.017C197.592 104.524 195.951 105.621 194.775 107.144C193.599 108.666 192.951 110.53 192.93 112.454H192.782C190.654 112.511 188.632 113.397 187.146 114.923C185.661 116.448 184.83 118.493 184.83 120.623C184.83 122.752 185.661 124.797 187.146 126.323C188.632 127.848 190.654 128.734 192.782 128.791H222.784C224.03 128.756 225.213 128.235 226.082 127.34C226.95 126.446 227.435 125.247 227.433 124Z" fill="#F0F0F0"/>
<path d="M77.2546 161.223C77.2545 160.477 77.0801 159.742 76.7454 159.075C76.4106 158.408 75.9248 157.829 75.3265 157.383C74.7283 156.937 74.0342 156.637 73.2996 156.507C72.5649 156.377 71.81 156.42 71.095 156.633C71.1635 156.146 71.199 155.656 71.2012 155.164C71.2012 152.474 70.1327 149.894 68.2307 147.992C66.3287 146.09 63.749 145.022 61.0591 145.022C60.4318 145.022 59.8057 145.079 59.1888 145.193C58.1959 143.539 56.6897 142.255 54.8995 141.536C53.1093 140.817 51.1332 140.702 49.272 141.21C47.4109 141.718 45.7666 142.82 44.5895 144.348C43.4124 145.877 42.767 147.748 42.7514 149.677H42.6039C41.5128 149.648 40.4268 149.837 39.4101 150.235C38.3934 150.632 37.4666 151.229 36.6844 151.99C35.9023 152.752 35.2806 153.662 34.8561 154.668C34.4316 155.673 34.2129 156.754 34.2129 157.846C34.2129 158.937 34.4316 160.018 34.8561 161.023C35.2806 162.029 35.9023 162.939 36.6844 163.701C37.4666 164.462 38.3934 165.059 39.4101 165.457C40.4268 165.854 41.5128 166.043 42.6039 166.014H72.5995C73.847 165.98 75.0318 165.46 75.9014 164.565C76.7711 163.671 77.2566 162.471 77.2546 161.223Z" fill="#F0F0F0"/>
<path d="M258.167 165.106C258.167 164.359 257.992 163.622 257.657 162.955C257.322 162.288 256.836 161.708 256.237 161.262C255.638 160.816 254.943 160.516 254.208 160.387C253.472 160.257 252.717 160.301 252.001 160.515C252.073 160.029 252.108 159.538 252.107 159.046C252.109 157.559 251.783 156.089 251.152 154.742C250.522 153.395 249.602 152.203 248.459 151.252C247.315 150.301 245.976 149.613 244.537 149.238C243.097 148.862 241.593 148.809 240.13 149.081C239.139 147.425 237.633 146.138 235.842 145.417C234.051 144.696 232.074 144.58 230.211 145.088C228.349 145.595 226.703 146.697 225.525 148.227C224.347 149.756 223.702 151.629 223.687 153.559H223.54C221.372 153.559 219.294 154.42 217.762 155.953C216.229 157.485 215.368 159.564 215.368 161.731C215.368 163.898 216.229 165.977 217.762 167.509C219.294 169.041 221.372 169.902 223.54 169.902H253.547C254.789 169.859 255.966 169.335 256.828 168.44C257.691 167.544 258.171 166.349 258.167 165.106Z" fill="#F0F0F0"/>
<path d="M159.3 136.089C159.299 135.589 159.182 135.096 158.957 134.649C158.733 134.201 158.407 133.812 158.007 133.513C157.606 133.213 157.141 133.01 156.649 132.921C156.157 132.831 155.65 132.858 155.17 132.998C155.31 132.027 155.241 131.038 154.965 130.097C154.69 129.156 154.216 128.285 153.575 127.543C152.934 126.801 152.14 126.206 151.249 125.797C150.358 125.388 149.389 125.176 148.409 125.174C147.987 125.174 147.566 125.214 147.152 125.292C146.478 124.185 145.462 123.328 144.258 122.849C143.054 122.369 141.726 122.295 140.476 122.636C139.225 122.976 138.12 123.715 137.325 124.739C136.531 125.763 136.091 127.017 136.072 128.313H135.971C134.512 128.313 133.111 128.893 132.079 129.925C131.047 130.958 130.467 132.358 130.467 133.818C130.467 135.278 131.047 136.678 132.079 137.71C133.111 138.743 134.512 139.323 135.971 139.323H156.191C157.028 139.293 157.82 138.94 158.401 138.336C158.981 137.732 159.304 136.927 159.3 136.089Z" fill="#F0F0F0"/>
<path d="M250.113 74.9712C250.115 74.4672 249.998 73.9698 249.772 73.5191C249.546 73.0684 249.218 72.6772 248.813 72.3769C248.408 72.0766 247.939 71.8756 247.442 71.7903C246.945 71.7049 246.435 71.7376 245.953 71.8855C246.101 70.9137 246.036 69.9215 245.763 68.9771C245.491 68.0327 245.017 67.1586 244.375 66.4146C243.732 65.6707 242.936 65.0747 242.042 64.6676C241.147 64.2605 240.175 64.0519 239.192 64.0562C238.77 64.0564 238.349 64.0959 237.935 64.1742C237.262 63.0659 236.247 62.2067 235.043 61.7265C233.839 61.2462 232.511 61.171 231.26 61.5122C230.009 61.8534 228.903 62.5925 228.11 63.6177C227.316 64.6429 226.878 65.8986 226.861 67.195H226.761C225.301 67.195 223.9 67.775 222.868 68.8073C221.836 69.8397 221.256 71.2398 221.256 72.6997C221.256 74.1597 221.836 75.5598 222.868 76.5921C223.9 77.6245 225.301 78.2044 226.761 78.2044H246.974C247.815 78.1799 248.613 77.8284 249.199 77.2247C249.785 76.621 250.113 75.8126 250.113 74.9712Z" fill="#F0F0F0"/>
<path d="M34.7979 217.356V189.62H37.1638V176.398H40.633V130.443H45.648V124.513L56.3506 119.522V113.539H57.8314V130.443H59.9083V176.398H61.985V152.232H67.6137V139.783H69.1889V176.398H73.4664V162.462H76.2807V158.905H82.8062V146.751H86.3756V138.154H90.7712V125.623H92.3347V138.154H96.7243V146.751H100.3V158.905H106.825V162.462H109.639V176.398H112.979V158.905H119.504V121.251H121.581V117.097H135.517V121.251H138.479V148.527H150.338V151.199H154.786V153.27H150.338V163.949H162.792V128.366H165.459V120.808H171.241V93.9751H172.876V120.808H177.023V128.366H201.361V125.876H202.842V142.78H204.918V143.075H206.163V159.973H208.24V164.569H212.624V152.12H214.199V181.767H215.951V169.318H217.521V188.735H218.477V174.799H221.297V171.241H227.816V159.088H231.392V150.485H235.781V137.96H237.351V150.485H241.74V159.088H245.31V171.241H251.835V174.799H254.65V188.44H255.157V188.735H256.549V217.356H34.7979Z" fill="#F5F5F5"/>
<path d="M187.785 130.03H186.104V131.712H187.785V130.03Z" fill="#FAFAFA"/>
<path d="M187.785 132.844H186.104V134.526H187.785V132.844Z" fill="#FAFAFA"/>
<path d="M187.785 144.113H186.104V145.795H187.785V144.113Z" fill="#FAFAFA"/>
<path d="M187.785 146.928H186.104V148.609H187.785V146.928Z" fill="#FAFAFA"/>
<path d="M187.785 149.748H186.104V151.429H187.785V149.748Z" fill="#FAFAFA"/>
<path d="M187.785 158.197H186.104V159.878H187.785V158.197Z" fill="#FAFAFA"/>
<path d="M187.785 161.011H186.104V162.692H187.785V161.011Z" fill="#FAFAFA"/>
<path d="M185.112 141.299H183.431V142.981H185.112V141.299Z" fill="#FAFAFA"/>
<path d="M185.112 144.113H183.431V145.795H185.112V144.113Z" fill="#FAFAFA"/>
<path d="M185.112 146.928H183.431V148.609H185.112V146.928Z" fill="#FAFAFA"/>
<path d="M185.112 149.748H183.431V151.429H185.112V149.748Z" fill="#FAFAFA"/>
<path d="M185.112 152.562H183.431V154.244H185.112V152.562Z" fill="#FAFAFA"/>
<path d="M185.112 158.197H183.431V159.878H185.112V158.197Z" fill="#FAFAFA"/>
<path d="M185.112 161.011H183.431V162.692H185.112V161.011Z" fill="#FAFAFA"/>
<path d="M182.446 130.03H180.765V131.712H182.446V130.03Z" fill="#FAFAFA"/>
<path d="M182.446 132.844H180.765V134.526H182.446V132.844Z" fill="#FAFAFA"/>
<path d="M182.446 135.665H180.765V137.346H182.446V135.665Z" fill="#FAFAFA"/>
<path d="M182.446 138.479H180.765V140.16H182.446V138.479Z" fill="#FAFAFA"/>
<path d="M182.446 141.299H180.765V142.981H182.446V141.299Z" fill="#FAFAFA"/>
<path d="M182.446 144.113H180.765V145.795H182.446V144.113Z" fill="#FAFAFA"/>
<path d="M182.446 146.928H180.765V148.609H182.446V146.928Z" fill="#FAFAFA"/>
<path d="M182.446 149.748H180.765V151.429H182.446V149.748Z" fill="#FAFAFA"/>
<path d="M182.446 152.562H180.765V154.244H182.446V152.562Z" fill="#FAFAFA"/>
<path d="M182.446 155.382H180.765V157.064H182.446V155.382Z" fill="#FAFAFA"/>
<path d="M182.446 161.011H180.765V162.692H182.446V161.011Z" fill="#FAFAFA"/>
<path d="M179.779 130.03H178.098V131.712H179.779V130.03Z" fill="#FAFAFA"/>
<path d="M179.779 132.844H178.098V134.526H179.779V132.844Z" fill="#FAFAFA"/>
<path d="M179.779 135.665H178.098V137.346H179.779V135.665Z" fill="#FAFAFA"/>
<path d="M179.779 138.479H178.098V140.16H179.779V138.479Z" fill="#FAFAFA"/>
<path d="M179.779 141.299H178.098V142.981H179.779V141.299Z" fill="#FAFAFA"/>
<path d="M179.779 144.113H178.098V145.795H179.779V144.113Z" fill="#FAFAFA"/>
<path d="M179.779 146.928H178.098V148.609H179.779V146.928Z" fill="#FAFAFA"/>
<path d="M179.779 172.28H178.098V173.962H179.779V172.28Z" fill="#FAFAFA"/>
<path d="M177.112 130.03H175.431V131.712H177.112V130.03Z" fill="#FAFAFA"/>
<path d="M177.112 132.844H175.431V134.526H177.112V132.844Z" fill="#FAFAFA"/>
<path d="M177.112 135.665H175.431V137.346H177.112V135.665Z" fill="#FAFAFA"/>
<path d="M177.112 138.479H175.431V140.16H177.112V138.479Z" fill="#FAFAFA"/>
<path d="M177.112 141.299H175.431V142.981H177.112V141.299Z" fill="#FAFAFA"/>
<path d="M177.112 144.113H175.431V145.795H177.112V144.113Z" fill="#FAFAFA"/>
<path d="M177.112 146.928H175.431V148.609H177.112V146.928Z" fill="#FAFAFA"/>
<path d="M177.112 149.748H175.431V151.429H177.112V149.748Z" fill="#FAFAFA"/>
<path d="M177.112 166.646H175.431V168.327H177.112V166.646Z" fill="#FAFAFA"/>
<path d="M177.112 169.466H175.431V171.147H177.112V169.466Z" fill="#FAFAFA"/>
<path d="M177.112 172.28H175.431V173.962H177.112V172.28Z" fill="#FAFAFA"/>
<path d="M177.112 175.094H175.431V176.776H177.112V175.094Z" fill="#FAFAFA"/>
<path d="M177.112 186.363H175.431V188.045H177.112V186.363Z" fill="#FAFAFA"/>
<path d="M174.439 130.03H172.758V131.712H174.439V130.03Z" fill="#FAFAFA"/>
<path d="M174.439 132.844H172.758V134.526H174.439V132.844Z" fill="#FAFAFA"/>
<path d="M174.439 135.665H172.758V137.346H174.439V135.665Z" fill="#FAFAFA"/>
<path d="M174.439 138.479H172.758V140.16H174.439V138.479Z" fill="#FAFAFA"/>
<path d="M174.439 141.299H172.758V142.981H174.439V141.299Z" fill="#FAFAFA"/>
<path d="M174.439 144.113H172.758V145.795H174.439V144.113Z" fill="#FAFAFA"/>
<path d="M174.439 146.928H172.758V148.609H174.439V146.928Z" fill="#FAFAFA"/>
<path d="M174.439 149.748H172.758V151.429H174.439V149.748Z" fill="#FAFAFA"/>
<path d="M174.439 152.562H172.758V154.244H174.439V152.562Z" fill="#FAFAFA"/>
<path d="M174.439 155.382H172.758V157.064H174.439V155.382Z" fill="#FAFAFA"/>
<path d="M174.439 163.831H172.758V165.513H174.439V163.831Z" fill="#FAFAFA"/>
<path d="M174.439 166.646H172.758V168.327H174.439V166.646Z" fill="#FAFAFA"/>
<path d="M174.439 169.466H172.758V171.147H174.439V169.466Z" fill="#FAFAFA"/>
<path d="M174.439 172.28H172.758V173.962H174.439V172.28Z" fill="#FAFAFA"/>
<path d="M174.439 175.094H172.758V176.776H174.439V175.094Z" fill="#FAFAFA"/>
<path d="M174.439 186.363H172.758V188.045H174.439V186.363Z" fill="#FAFAFA"/>
<path d="M171.772 130.03H170.091V131.712H171.772V130.03Z" fill="#FAFAFA"/>
<path d="M171.772 132.844H170.091V134.526H171.772V132.844Z" fill="#FAFAFA"/>
<path d="M171.772 135.665H170.091V137.346H171.772V135.665Z" fill="#FAFAFA"/>
<path d="M171.772 138.479H170.091V140.16H171.772V138.479Z" fill="#FAFAFA"/>
<path d="M171.772 141.299H170.091V142.981H171.772V141.299Z" fill="#FAFAFA"/>
<path d="M171.772 144.113H170.091V145.795H171.772V144.113Z" fill="#FAFAFA"/>
<path d="M171.772 146.928H170.091V148.609H171.772V146.928Z" fill="#FAFAFA"/>
<path d="M171.772 149.748H170.091V151.429H171.772V149.748Z" fill="#FAFAFA"/>
<path d="M171.772 152.562H170.091V154.244H171.772V152.562Z" fill="#FAFAFA"/>
<path d="M171.772 155.382H170.091V157.064H171.772V155.382Z" fill="#FAFAFA"/>
<path d="M171.772 158.197H170.091V159.878H171.772V158.197Z" fill="#FAFAFA"/>
<path d="M171.772 161.011H170.091V162.692H171.772V161.011Z" fill="#FAFAFA"/>
<path d="M171.772 163.831H170.091V165.513H171.772V163.831Z" fill="#FAFAFA"/>
<path d="M171.772 166.646H170.091V168.327H171.772V166.646Z" fill="#FAFAFA"/>
<path d="M171.772 169.466H170.091V171.147H171.772V169.466Z" fill="#FAFAFA"/>
<path d="M171.772 172.28H170.091V173.962H171.772V172.28Z" fill="#FAFAFA"/>
<path d="M171.772 175.094H170.091V176.776H171.772V175.094Z" fill="#FAFAFA"/>
<path d="M171.772 177.915H170.091V179.596H171.772V177.915Z" fill="#FAFAFA"/>
<path d="M169.105 130.03H167.424V131.712H169.105V130.03Z" fill="#FAFAFA"/>
<path d="M169.105 132.844H167.424V134.526H169.105V132.844Z" fill="#FAFAFA"/>
<path d="M169.105 135.665H167.424V137.346H169.105V135.665Z" fill="#FAFAFA"/>
<path d="M169.105 138.479H167.424V140.16H169.105V138.479Z" fill="#FAFAFA"/>
<path d="M169.105 141.299H167.424V142.981H169.105V141.299Z" fill="#FAFAFA"/>
<path d="M169.105 144.113H167.424V145.795H169.105V144.113Z" fill="#FAFAFA"/>
<path d="M169.105 146.928H167.424V148.609H169.105V146.928Z" fill="#FAFAFA"/>
<path d="M169.105 149.748H167.424V151.429H169.105V149.748Z" fill="#FAFAFA"/>
<path d="M169.105 152.562H167.424V154.244H169.105V152.562Z" fill="#FAFAFA"/>
<path d="M169.105 155.382H167.424V157.064H169.105V155.382Z" fill="#FAFAFA"/>
<path d="M169.105 163.831H167.424V165.513H169.105V163.831Z" fill="#FAFAFA"/>
<path d="M169.105 166.646H167.424V168.327H169.105V166.646Z" fill="#FAFAFA"/>
<path d="M169.105 169.466H167.424V171.147H169.105V169.466Z" fill="#FAFAFA"/>
<path d="M169.105 172.28H167.424V173.962H169.105V172.28Z" fill="#FAFAFA"/>
<path d="M166.433 130.03H164.752V131.712H166.433V130.03Z" fill="#FAFAFA"/>
<path d="M166.433 132.844H164.752V134.526H166.433V132.844Z" fill="#FAFAFA"/>
<path d="M166.433 135.665H164.752V137.346H166.433V135.665Z" fill="#FAFAFA"/>
<path d="M166.433 138.479H164.752V140.16H166.433V138.479Z" fill="#FAFAFA"/>
<path d="M166.433 141.299H164.752V142.981H166.433V141.299Z" fill="#FAFAFA"/>
<path d="M166.433 144.113H164.752V145.795H166.433V144.113Z" fill="#FAFAFA"/>
<path d="M166.433 146.928H164.752V148.609H166.433V146.928Z" fill="#FAFAFA"/>
<path d="M166.433 149.748H164.752V151.429H166.433V149.748Z" fill="#FAFAFA"/>
<path d="M166.433 152.562H164.752V154.244H166.433V152.562Z" fill="#FAFAFA"/>
<path d="M166.433 155.382H164.752V157.064H166.433V155.382Z" fill="#FAFAFA"/>
<path d="M166.433 163.831H164.752V165.513H166.433V163.831Z" fill="#FAFAFA"/>
<path d="M166.433 166.646H164.752V168.327H166.433V166.646Z" fill="#FAFAFA"/>
<path d="M166.433 169.466H164.752V171.147H166.433V169.466Z" fill="#FAFAFA"/>
<path d="M136.39 122.714H134.709V124.396H136.39V122.714Z" fill="#FAFAFA"/>
<path d="M136.39 125.534H134.709V127.216H136.39V125.534Z" fill="#FAFAFA"/>
<path d="M136.39 128.349H134.709V130.03H136.39V128.349Z" fill="#FAFAFA"/>
<path d="M136.39 131.163H134.709V132.844H136.39V131.163Z" fill="#FAFAFA"/>
<path d="M136.39 133.983H134.709V135.665H136.39V133.983Z" fill="#FAFAFA"/>
<path d="M136.39 136.797H134.709V138.479H136.39V136.797Z" fill="#FAFAFA"/>
<path d="M136.39 139.617H134.709V141.299H136.39V139.617Z" fill="#FAFAFA"/>
<path d="M136.39 142.432H134.709V144.113H136.39V142.432Z" fill="#FAFAFA"/>
<path d="M136.39 150.881H134.709V152.562H136.39V150.881Z" fill="#FAFAFA"/>
<path d="M136.39 153.701H134.709V155.382H136.39V153.701Z" fill="#FAFAFA"/>
<path d="M133.723 122.714H132.042V124.396H133.723V122.714Z" fill="#FAFAFA"/>
<path d="M133.723 125.534H132.042V127.216H133.723V125.534Z" fill="#FAFAFA"/>
<path d="M133.723 128.349H132.042V130.03H133.723V128.349Z" fill="#FAFAFA"/>
<path d="M133.723 131.163H132.042V132.844H133.723V131.163Z" fill="#FAFAFA"/>
<path d="M133.723 133.983H132.042V135.665H133.723V133.983Z" fill="#FAFAFA"/>
<path d="M133.723 136.797H132.042V138.479H133.723V136.797Z" fill="#FAFAFA"/>
<path d="M133.723 139.617H132.042V141.299H133.723V139.617Z" fill="#FAFAFA"/>
<path d="M133.723 142.432H132.042V144.113H133.723V142.432Z" fill="#FAFAFA"/>
<path d="M133.723 153.701H132.042V155.382H133.723V153.701Z" fill="#FAFAFA"/>
<path d="M131.051 122.714H129.369V124.396H131.051V122.714Z" fill="#FAFAFA"/>
<path d="M131.051 125.534H129.369V127.216H131.051V125.534Z" fill="#FAFAFA"/>
<path d="M131.051 128.349H129.369V130.03H131.051V128.349Z" fill="#FAFAFA"/>
<path d="M131.051 131.163H129.369V132.844H131.051V131.163Z" fill="#FAFAFA"/>
<path d="M131.051 133.983H129.369V135.665H131.051V133.983Z" fill="#FAFAFA"/>
<path d="M131.051 136.797H129.369V138.479H131.051V136.797Z" fill="#FAFAFA"/>
<path d="M131.051 139.617H129.369V141.299H131.051V139.617Z" fill="#FAFAFA"/>
<path d="M131.051 142.432H129.369V144.113H131.051V142.432Z" fill="#FAFAFA"/>
<path d="M128.384 122.714H126.702V124.396H128.384V122.714Z" fill="#FAFAFA"/>
<path d="M128.384 125.534H126.702V127.216H128.384V125.534Z" fill="#FAFAFA"/>
<path d="M128.384 128.349H126.702V130.03H128.384V128.349Z" fill="#FAFAFA"/>
<path d="M128.384 131.163H126.702V132.844H128.384V131.163Z" fill="#FAFAFA"/>
<path d="M128.384 133.983H126.702V135.665H128.384V133.983Z" fill="#FAFAFA"/>
<path d="M128.384 136.797H126.702V138.479H128.384V136.797Z" fill="#FAFAFA"/>
<path d="M128.384 142.432H126.702V144.113H128.384V142.432Z" fill="#FAFAFA"/>
<path d="M128.384 145.252H126.702V146.933H128.384V145.252Z" fill="#FAFAFA"/>
<path d="M128.384 153.701H126.702V155.382H128.384V153.701Z" fill="#FAFAFA"/>
<path d="M128.384 156.515H126.702V158.197H128.384V156.515Z" fill="#FAFAFA"/>
<path d="M128.384 159.335H126.702V161.017H128.384V159.335Z" fill="#FAFAFA"/>
<path d="M128.384 162.15H126.702V163.831H128.384V162.15Z" fill="#FAFAFA"/>
<path d="M128.384 164.964H126.702V166.645H128.384V164.964Z" fill="#FAFAFA"/>
<path d="M128.384 167.784H126.702V169.466H128.384V167.784Z" fill="#FAFAFA"/>
<path d="M128.384 170.598H126.702V172.28H128.384V170.598Z" fill="#FAFAFA"/>
<path d="M125.718 122.714H124.036V124.396H125.718V122.714Z" fill="#FAFAFA"/>
<path d="M125.718 125.534H124.036V127.216H125.718V125.534Z" fill="#FAFAFA"/>
<path d="M125.718 128.349H124.036V130.03H125.718V128.349Z" fill="#FAFAFA"/>
<path d="M125.718 131.163H124.036V132.844H125.718V131.163Z" fill="#FAFAFA"/>
<path d="M125.718 133.983H124.036V135.665H125.718V133.983Z" fill="#FAFAFA"/>
<path d="M125.718 136.797H124.036V138.479H125.718V136.797Z" fill="#FAFAFA"/>
<path d="M125.718 145.252H124.036V146.933H125.718V145.252Z" fill="#FAFAFA"/>
<path d="M125.718 148.066H124.036V149.748H125.718V148.066Z" fill="#FAFAFA"/>
<path d="M125.718 150.881H124.036V152.562H125.718V150.881Z" fill="#FAFAFA"/>
<path d="M125.718 153.701H124.036V155.382H125.718V153.701Z" fill="#FAFAFA"/>
<path d="M125.718 156.515H124.036V158.197H125.718V156.515Z" fill="#FAFAFA"/>
<path d="M125.718 159.335H124.036V161.017H125.718V159.335Z" fill="#FAFAFA"/>
<path d="M125.718 162.15H124.036V163.831H125.718V162.15Z" fill="#FAFAFA"/>
<path d="M125.718 164.964H124.036V166.645H125.718V164.964Z" fill="#FAFAFA"/>
<path d="M125.718 167.784H124.036V169.466H125.718V167.784Z" fill="#FAFAFA"/>
<path d="M125.718 170.598H124.036V172.28H125.718V170.598Z" fill="#FAFAFA"/>
<path d="M125.718 173.419H124.036V175.1H125.718V173.419Z" fill="#FAFAFA"/>
<path d="M125.718 179.053H124.036V180.735H125.718V179.053Z" fill="#FAFAFA"/>
<path d="M123.045 122.714H121.363V124.396H123.045V122.714Z" fill="#FAFAFA"/>
<path d="M123.045 125.534H121.363V127.216H123.045V125.534Z" fill="#FAFAFA"/>
<path d="M123.045 128.349H121.363V130.03H123.045V128.349Z" fill="#FAFAFA"/>
<path d="M123.045 131.163H121.363V132.844H123.045V131.163Z" fill="#FAFAFA"/>
<path d="M123.045 133.983H121.363V135.665H123.045V133.983Z" fill="#FAFAFA"/>
<path d="M123.045 136.797H121.363V138.479H123.045V136.797Z" fill="#FAFAFA"/>
<path d="M123.045 145.252H121.363V146.933H123.045V145.252Z" fill="#FAFAFA"/>
<path d="M123.045 148.066H121.363V149.748H123.045V148.066Z" fill="#FAFAFA"/>
<path d="M123.045 150.881H121.363V152.562H123.045V150.881Z" fill="#FAFAFA"/>
<path d="M123.045 153.701H121.363V155.382H123.045V153.701Z" fill="#FAFAFA"/>
<path d="M123.045 162.15H121.363V163.831H123.045V162.15Z" fill="#FAFAFA"/>
<path d="M123.045 164.964H121.363V166.645H123.045V164.964Z" fill="#FAFAFA"/>
<path d="M123.045 167.784H121.363V169.466H123.045V167.784Z" fill="#FAFAFA"/>
<path d="M123.045 170.598H121.363V172.28H123.045V170.598Z" fill="#FAFAFA"/>
<path d="M123.045 173.419H121.363V175.1H123.045V173.419Z" fill="#FAFAFA"/>
<path d="M123.045 179.053H121.363V180.735H123.045V179.053Z" fill="#FAFAFA"/>
<path d="M123.045 181.867H121.363V183.549H123.045V181.867Z" fill="#FAFAFA"/>
<path d="M98.8309 148.904H97.1494V150.586H98.8309V148.904Z" fill="#FAFAFA"/>
<path d="M98.8309 151.724H97.1494V153.406H98.8309V151.724Z" fill="#FAFAFA"/>
<path d="M98.8309 154.539H97.1494V156.22H98.8309V154.539Z" fill="#FAFAFA"/>
<path d="M98.8309 157.359H97.1494V159.04H98.8309V157.359Z" fill="#FAFAFA"/>
<path d="M98.8309 160.173H97.1494V161.855H98.8309V160.173Z" fill="#FAFAFA"/>
<path d="M98.8309 162.988H97.1494V164.669H98.8309V162.988Z" fill="#FAFAFA"/>
<path d="M98.8309 165.808H97.1494V167.489H98.8309V165.808Z" fill="#FAFAFA"/>
<path d="M98.8309 174.256H97.1494V175.938H98.8309V174.256Z" fill="#FAFAFA"/>
<path d="M98.8309 177.077H97.1494V178.758H98.8309V177.077Z" fill="#FAFAFA"/>
<path d="M98.8309 179.891H97.1494V181.572H98.8309V179.891Z" fill="#FAFAFA"/>
<path d="M96.1639 148.904H94.4824V150.586H96.1639V148.904Z" fill="#FAFAFA"/>
<path d="M96.1639 151.724H94.4824V153.406H96.1639V151.724Z" fill="#FAFAFA"/>
<path d="M96.1639 154.539H94.4824V156.22H96.1639V154.539Z" fill="#FAFAFA"/>
<path d="M96.1639 157.359H94.4824V159.04H96.1639V157.359Z" fill="#FAFAFA"/>
<path d="M96.1639 160.173H94.4824V161.855H96.1639V160.173Z" fill="#FAFAFA"/>
<path d="M96.1639 162.988H94.4824V164.669H96.1639V162.988Z" fill="#FAFAFA"/>
<path d="M96.1639 165.808H94.4824V167.489H96.1639V165.808Z" fill="#FAFAFA"/>
<path d="M93.4969 148.904H91.8154V150.586H93.4969V148.904Z" fill="#FAFAFA"/>
<path d="M93.4969 151.724H91.8154V153.406H93.4969V151.724Z" fill="#FAFAFA"/>
<path d="M93.4969 154.539H91.8154V156.22H93.4969V154.539Z" fill="#FAFAFA"/>
<path d="M93.4969 157.359H91.8154V159.04H93.4969V157.359Z" fill="#FAFAFA"/>
<path d="M93.4969 160.173H91.8154V161.855H93.4969V160.173Z" fill="#FAFAFA"/>
<path d="M93.4969 162.988H91.8154V164.669H93.4969V162.988Z" fill="#FAFAFA"/>
<path d="M93.4969 165.808H91.8154V167.489H93.4969V165.808Z" fill="#FAFAFA"/>
<path d="M90.8251 148.904H89.1436V150.586H90.8251V148.904Z" fill="#FAFAFA"/>
<path d="M90.8251 151.724H89.1436V153.406H90.8251V151.724Z" fill="#FAFAFA"/>
<path d="M90.8251 154.539H89.1436V156.22H90.8251V154.539Z" fill="#FAFAFA"/>
<path d="M90.8251 157.359H89.1436V159.04H90.8251V157.359Z" fill="#FAFAFA"/>
<path d="M90.8251 160.173H89.1436V161.855H90.8251V160.173Z" fill="#FAFAFA"/>
<path d="M90.8251 162.988H89.1436V164.669H90.8251V162.988Z" fill="#FAFAFA"/>
<path d="M90.8251 165.808H89.1436V167.489H90.8251V165.808Z" fill="#FAFAFA"/>
<path d="M90.8251 168.622H89.1436V170.304H90.8251V168.622Z" fill="#FAFAFA"/>
<path d="M90.8251 171.442H89.1436V173.124H90.8251V171.442Z" fill="#FAFAFA"/>
<path d="M90.8251 174.256H89.1436V175.938H90.8251V174.256Z" fill="#FAFAFA"/>
<path d="M90.8251 177.077H89.1436V178.758H90.8251V177.077Z" fill="#FAFAFA"/>
<path d="M88.1581 148.904H86.4766V150.586H88.1581V148.904Z" fill="#FAFAFA"/>
<path d="M88.1581 151.724H86.4766V153.406H88.1581V151.724Z" fill="#FAFAFA"/>
<path d="M88.1581 154.539H86.4766V156.22H88.1581V154.539Z" fill="#FAFAFA"/>
<path d="M88.1581 157.359H86.4766V159.04H88.1581V157.359Z" fill="#FAFAFA"/>
<path d="M88.1581 160.173H86.4766V161.855H88.1581V160.173Z" fill="#FAFAFA"/>
<path d="M88.1581 162.988H86.4766V164.669H88.1581V162.988Z" fill="#FAFAFA"/>
<path d="M88.1581 165.808H86.4766V167.489H88.1581V165.808Z" fill="#FAFAFA"/>
<path d="M88.1581 168.622H86.4766V170.304H88.1581V168.622Z" fill="#FAFAFA"/>
<path d="M88.1581 171.442H86.4766V173.124H88.1581V171.442Z" fill="#FAFAFA"/>
<path d="M88.1581 174.256H86.4766V175.938H88.1581V174.256Z" fill="#FAFAFA"/>
<path d="M88.1581 177.077H86.4766V178.758H88.1581V177.077Z" fill="#FAFAFA"/>
<path d="M88.1581 179.891H86.4766V181.572H88.1581V179.891Z" fill="#FAFAFA"/>
<path d="M88.1581 188.34H86.4766V190.021H88.1581V188.34Z" fill="#FAFAFA"/>
<path d="M88.1581 191.16H86.4766V192.841H88.1581V191.16Z" fill="#FAFAFA"/>
<path d="M85.4911 148.904H83.8096V150.586H85.4911V148.904Z" fill="#FAFAFA"/>
<path d="M85.4911 151.724H83.8096V153.406H85.4911V151.724Z" fill="#FAFAFA"/>
<path d="M85.4911 154.539H83.8096V156.22H85.4911V154.539Z" fill="#FAFAFA"/>
<path d="M85.4911 162.988H83.8096V164.669H85.4911V162.988Z" fill="#FAFAFA"/>
<path d="M85.4911 165.808H83.8096V167.489H85.4911V165.808Z" fill="#FAFAFA"/>
<path d="M85.4911 168.622H83.8096V170.304H85.4911V168.622Z" fill="#FAFAFA"/>
<path d="M85.4911 171.442H83.8096V173.124H85.4911V171.442Z" fill="#FAFAFA"/>
<path d="M85.4911 174.256H83.8096V175.938H85.4911V174.256Z" fill="#FAFAFA"/>
<path d="M85.4911 177.077H83.8096V178.758H85.4911V177.077Z" fill="#FAFAFA"/>
<path d="M85.4911 179.891H83.8096V181.572H85.4911V179.891Z" fill="#FAFAFA"/>
<path d="M85.4911 188.34H83.8096V190.021H85.4911V188.34Z" fill="#FAFAFA"/>
<path d="M85.4911 191.16H83.8096V192.841H85.4911V191.16Z" fill="#FAFAFA"/>
<path d="M85.4911 193.974H83.8096V195.656H85.4911V193.974Z" fill="#FAFAFA"/>
<path d="M57.5194 132.007H55.8379V133.688H57.5194V132.007Z" fill="#FAFAFA"/>
<path d="M57.5194 134.821H55.8379V136.502H57.5194V134.821Z" fill="#FAFAFA"/>
<path d="M57.5194 137.641H55.8379V139.323H57.5194V137.641Z" fill="#FAFAFA"/>
<path d="M57.5194 140.455H55.8379V142.137H57.5194V140.455Z" fill="#FAFAFA"/>
<path d="M57.5194 143.276H55.8379V144.957H57.5194V143.276Z" fill="#FAFAFA"/>
<path d="M57.5194 146.09H55.8379V147.771H57.5194V146.09Z" fill="#FAFAFA"/>
<path d="M57.5194 148.904H55.8379V150.586H57.5194V148.904Z" fill="#FAFAFA"/>
<path d="M57.5194 151.724H55.8379V153.406H57.5194V151.724Z" fill="#FAFAFA"/>
<path d="M57.5194 154.539H55.8379V156.22H57.5194V154.539Z" fill="#FAFAFA"/>
<path d="M57.5194 157.359H55.8379V159.04H57.5194V157.359Z" fill="#FAFAFA"/>
<path d="M57.5194 160.173H55.8379V161.855H57.5194V160.173Z" fill="#FAFAFA"/>
<path d="M57.5194 162.988H55.8379V164.669H57.5194V162.988Z" fill="#FAFAFA"/>
<path d="M57.5194 165.808H55.8379V167.489H57.5194V165.808Z" fill="#FAFAFA"/>
<path d="M57.5194 168.622H55.8379V170.304H57.5194V168.622Z" fill="#FAFAFA"/>
<path d="M57.5194 171.442H55.8379V173.124H57.5194V171.442Z" fill="#FAFAFA"/>
<path d="M57.5194 174.256H55.8379V175.938H57.5194V174.256Z" fill="#FAFAFA"/>
<path d="M57.5194 177.077H55.8379V178.758H57.5194V177.077Z" fill="#FAFAFA"/>
<path d="M57.5194 179.891H55.8379V181.572H57.5194V179.891Z" fill="#FAFAFA"/>
<path d="M57.5194 182.705H55.8379V184.387H57.5194V182.705Z" fill="#FAFAFA"/>
<path d="M57.5194 185.525H55.8379V187.207H57.5194V185.525Z" fill="#FAFAFA"/>
<path d="M57.5194 188.34H55.8379V190.021H57.5194V188.34Z" fill="#FAFAFA"/>
<path d="M57.5194 191.16H55.8379V192.841H57.5194V191.16Z" fill="#FAFAFA"/>
<path d="M57.5194 193.974H55.8379V195.656H57.5194V193.974Z" fill="#FAFAFA"/>
<path d="M54.8524 132.007H53.1709V133.688H54.8524V132.007Z" fill="#FAFAFA"/>
<path d="M54.8524 134.821H53.1709V136.502H54.8524V134.821Z" fill="#FAFAFA"/>
<path d="M54.8524 137.641H53.1709V139.323H54.8524V137.641Z" fill="#FAFAFA"/>
<path d="M54.8524 140.455H53.1709V142.137H54.8524V140.455Z" fill="#FAFAFA"/>
<path d="M54.8524 143.276H53.1709V144.957H54.8524V143.276Z" fill="#FAFAFA"/>
<path d="M54.8524 146.09H53.1709V147.771H54.8524V146.09Z" fill="#FAFAFA"/>
<path d="M54.8524 148.904H53.1709V150.586H54.8524V148.904Z" fill="#FAFAFA"/>
<path d="M54.8524 151.724H53.1709V153.406H54.8524V151.724Z" fill="#FAFAFA"/>
<path d="M54.8524 154.539H53.1709V156.22H54.8524V154.539Z" fill="#FAFAFA"/>
<path d="M54.8524 157.359H53.1709V159.04H54.8524V157.359Z" fill="#FAFAFA"/>
<path d="M54.8524 160.173H53.1709V161.855H54.8524V160.173Z" fill="#FAFAFA"/>
<path d="M54.8524 162.988H53.1709V164.669H54.8524V162.988Z" fill="#FAFAFA"/>
<path d="M54.8524 165.808H53.1709V167.489H54.8524V165.808Z" fill="#FAFAFA"/>
<path d="M54.8524 168.622H53.1709V170.304H54.8524V168.622Z" fill="#FAFAFA"/>
<path d="M54.8524 171.442H53.1709V173.124H54.8524V171.442Z" fill="#FAFAFA"/>
<path d="M54.8524 174.256H53.1709V175.938H54.8524V174.256Z" fill="#FAFAFA"/>
<path d="M54.8524 177.077H53.1709V178.758H54.8524V177.077Z" fill="#FAFAFA"/>
<path d="M54.8524 179.891H53.1709V181.572H54.8524V179.891Z" fill="#FAFAFA"/>
<path d="M54.8524 182.705H53.1709V184.387H54.8524V182.705Z" fill="#FAFAFA"/>
<path d="M52.1854 132.007H50.5039V133.688H52.1854V132.007Z" fill="#FAFAFA"/>
<path d="M52.1854 134.821H50.5039V136.502H52.1854V134.821Z" fill="#FAFAFA"/>
<path d="M52.1854 137.641H50.5039V139.323H52.1854V137.641Z" fill="#FAFAFA"/>
<path d="M52.1854 140.455H50.5039V142.137H52.1854V140.455Z" fill="#FAFAFA"/>
<path d="M52.1854 143.276H50.5039V144.957H52.1854V143.276Z" fill="#FAFAFA"/>
<path d="M52.1854 146.09H50.5039V147.771H52.1854V146.09Z" fill="#FAFAFA"/>
<path d="M52.1854 148.904H50.5039V150.586H52.1854V148.904Z" fill="#FAFAFA"/>
<path d="M52.1854 151.724H50.5039V153.406H52.1854V151.724Z" fill="#FAFAFA"/>
<path d="M52.1854 154.539H50.5039V156.22H52.1854V154.539Z" fill="#FAFAFA"/>
<path d="M52.1854 157.359H50.5039V159.04H52.1854V157.359Z" fill="#FAFAFA"/>
<path d="M52.1854 160.173H50.5039V161.855H52.1854V160.173Z" fill="#FAFAFA"/>
<path d="M52.1854 162.988H50.5039V164.669H52.1854V162.988Z" fill="#FAFAFA"/>
<path d="M52.1854 165.808H50.5039V167.489H52.1854V165.808Z" fill="#FAFAFA"/>
<path d="M52.1854 168.622H50.5039V170.304H52.1854V168.622Z" fill="#FAFAFA"/>
<path d="M52.1854 171.442H50.5039V173.124H52.1854V171.442Z" fill="#FAFAFA"/>
<path d="M52.1854 174.256H50.5039V175.938H52.1854V174.256Z" fill="#FAFAFA"/>
<path d="M52.1854 177.077H50.5039V178.758H52.1854V177.077Z" fill="#FAFAFA"/>
<path d="M52.1854 179.891H50.5039V181.572H52.1854V179.891Z" fill="#FAFAFA"/>
<path d="M52.1854 182.705H50.5039V184.387H52.1854V182.705Z" fill="#FAFAFA"/>
<path d="M49.5126 132.007H47.8311V133.688H49.5126V132.007Z" fill="#FAFAFA"/>
<path d="M49.5126 134.821H47.8311V136.502H49.5126V134.821Z" fill="#FAFAFA"/>
<path d="M49.5126 137.641H47.8311V139.323H49.5126V137.641Z" fill="#FAFAFA"/>
<path d="M49.5126 140.455H47.8311V142.137H49.5126V140.455Z" fill="#FAFAFA"/>
<path d="M49.5126 143.276H47.8311V144.957H49.5126V143.276Z" fill="#FAFAFA"/>
<path d="M49.5126 146.09H47.8311V147.771H49.5126V146.09Z" fill="#FAFAFA"/>
<path d="M49.5126 148.904H47.8311V150.586H49.5126V148.904Z" fill="#FAFAFA"/>
<path d="M49.5126 151.724H47.8311V153.406H49.5126V151.724Z" fill="#FAFAFA"/>
<path d="M49.5126 154.539H47.8311V156.22H49.5126V154.539Z" fill="#FAFAFA"/>
<path d="M49.5126 157.359H47.8311V159.04H49.5126V157.359Z" fill="#FAFAFA"/>
<path d="M49.5126 160.173H47.8311V161.855H49.5126V160.173Z" fill="#FAFAFA"/>
<path d="M49.5126 162.988H47.8311V164.669H49.5126V162.988Z" fill="#FAFAFA"/>
<path d="M49.5126 165.808H47.8311V167.489H49.5126V165.808Z" fill="#FAFAFA"/>
<path d="M49.5126 168.622H47.8311V170.304H49.5126V168.622Z" fill="#FAFAFA"/>
<path d="M49.5126 171.442H47.8311V173.124H49.5126V171.442Z" fill="#FAFAFA"/>
<path d="M46.8456 132.007H45.1641V133.688H46.8456V132.007Z" fill="#FAFAFA"/>
<path d="M46.8456 134.821H45.1641V136.502H46.8456V134.821Z" fill="#FAFAFA"/>
<path d="M46.8456 137.641H45.1641V139.323H46.8456V137.641Z" fill="#FAFAFA"/>
<path d="M46.8456 140.455H45.1641V142.137H46.8456V140.455Z" fill="#FAFAFA"/>
<path d="M46.8456 143.276H45.1641V144.957H46.8456V143.276Z" fill="#FAFAFA"/>
<path d="M46.8456 146.09H45.1641V147.771H46.8456V146.09Z" fill="#FAFAFA"/>
<path d="M46.8456 148.904H45.1641V150.586H46.8456V148.904Z" fill="#FAFAFA"/>
<path d="M46.8456 151.724H45.1641V153.406H46.8456V151.724Z" fill="#FAFAFA"/>
<path d="M46.8456 154.539H45.1641V156.22H46.8456V154.539Z" fill="#FAFAFA"/>
<path d="M46.8456 157.359H45.1641V159.04H46.8456V157.359Z" fill="#FAFAFA"/>
<path d="M46.8456 160.173H45.1641V161.855H46.8456V160.173Z" fill="#FAFAFA"/>
<path d="M46.8456 162.988H45.1641V164.669H46.8456V162.988Z" fill="#FAFAFA"/>
<path d="M46.8456 165.808H45.1641V167.489H46.8456V165.808Z" fill="#FAFAFA"/>
<path d="M44.1795 132.007H42.498V133.688H44.1795V132.007Z" fill="#FAFAFA"/>
<path d="M44.1795 134.821H42.498V136.502H44.1795V134.821Z" fill="#FAFAFA"/>
<path d="M44.1795 137.641H42.498V139.323H44.1795V137.641Z" fill="#FAFAFA"/>
<path d="M44.1795 140.455H42.498V142.137H44.1795V140.455Z" fill="#FAFAFA"/>
<path d="M44.1795 143.276H42.498V144.957H44.1795V143.276Z" fill="#FAFAFA"/>
<path d="M44.1795 146.09H42.498V147.771H44.1795V146.09Z" fill="#FAFAFA"/>
<path d="M44.1795 148.904H42.498V150.586H44.1795V148.904Z" fill="#FAFAFA"/>
<path d="M44.1795 151.724H42.498V153.406H44.1795V151.724Z" fill="#FAFAFA"/>
<path d="M44.1795 154.539H42.498V156.22H44.1795V154.539Z" fill="#FAFAFA"/>
<path d="M44.1795 157.359H42.498V159.04H44.1795V157.359Z" fill="#FAFAFA"/>
<path d="M44.1795 160.173H42.498V161.855H44.1795V160.173Z" fill="#FAFAFA"/>
<path d="M44.1795 162.988H42.498V164.669H44.1795V162.988Z" fill="#FAFAFA"/>
<path d="M240.265 152.562H238.584V154.244H240.265V152.562Z" fill="#FAFAFA"/>
<path d="M240.265 155.382H238.584V157.064H240.265V155.382Z" fill="#FAFAFA"/>
<path d="M240.265 158.197H238.584V159.878H240.265V158.197Z" fill="#FAFAFA"/>
<path d="M240.265 161.011H238.584V162.692H240.265V161.011Z" fill="#FAFAFA"/>
<path d="M240.265 163.831H238.584V165.513H240.265V163.831Z" fill="#FAFAFA"/>
<path d="M240.265 166.646H238.584V168.327H240.265V166.646Z" fill="#FAFAFA"/>
<path d="M240.265 169.466H238.584V171.147H240.265V169.466Z" fill="#FAFAFA"/>
<path d="M240.265 172.28H238.584V173.962H240.265V172.28Z" fill="#FAFAFA"/>
<path d="M240.265 175.094H238.584V176.776H240.265V175.094Z" fill="#FAFAFA"/>
<path d="M240.265 177.915H238.584V179.596H240.265V177.915Z" fill="#FAFAFA"/>
<path d="M240.265 180.729H238.584V182.41H240.265V180.729Z" fill="#FAFAFA"/>
<path d="M240.265 183.549H238.584V185.23H240.265V183.549Z" fill="#FAFAFA"/>
<path d="M240.265 186.363H238.584V188.045H240.265V186.363Z" fill="#FAFAFA"/>
<path d="M240.265 189.183H238.584V190.865H240.265V189.183Z" fill="#FAFAFA"/>
<path d="M240.265 191.998H238.584V193.679H240.265V191.998Z" fill="#FAFAFA"/>
<path d="M240.265 194.812H238.584V196.494H240.265V194.812Z" fill="#FAFAFA"/>
<path d="M240.265 197.632H238.584V199.314H240.265V197.632Z" fill="#FAFAFA"/>
<path d="M240.265 200.447H238.584V202.128H240.265V200.447Z" fill="#FAFAFA"/>
<path d="M240.265 203.267H238.584V204.948H240.265V203.267Z" fill="#FAFAFA"/>
<path d="M240.265 206.081H238.584V207.763H240.265V206.081Z" fill="#FAFAFA"/>
<path d="M237.593 152.562H235.911V154.244H237.593V152.562Z" fill="#FAFAFA"/>
<path d="M237.593 155.382H235.911V157.064H237.593V155.382Z" fill="#FAFAFA"/>
<path d="M237.593 158.197H235.911V159.878H237.593V158.197Z" fill="#FAFAFA"/>
<path d="M237.593 161.011H235.911V162.692H237.593V161.011Z" fill="#FAFAFA"/>
<path d="M237.593 163.831H235.911V165.513H237.593V163.831Z" fill="#FAFAFA"/>
<path d="M237.593 166.646H235.911V168.327H237.593V166.646Z" fill="#FAFAFA"/>
<path d="M237.593 169.466H235.911V171.147H237.593V169.466Z" fill="#FAFAFA"/>
<path d="M237.593 172.28H235.911V173.962H237.593V172.28Z" fill="#FAFAFA"/>
<path d="M237.593 175.094H235.911V176.776H237.593V175.094Z" fill="#FAFAFA"/>
<path d="M237.593 177.915H235.911V179.596H237.593V177.915Z" fill="#FAFAFA"/>
<path d="M237.593 180.729H235.911V182.41H237.593V180.729Z" fill="#FAFAFA"/>
<path d="M237.593 183.549H235.911V185.23H237.593V183.549Z" fill="#FAFAFA"/>
<path d="M237.593 186.363H235.911V188.045H237.593V186.363Z" fill="#FAFAFA"/>
<path d="M237.593 189.183H235.911V190.865H237.593V189.183Z" fill="#FAFAFA"/>
<path d="M237.593 191.998H235.911V193.679H237.593V191.998Z" fill="#FAFAFA"/>
<path d="M237.593 194.812H235.911V196.494H237.593V194.812Z" fill="#FAFAFA"/>
<path d="M237.593 197.632H235.911V199.314H237.593V197.632Z" fill="#FAFAFA"/>
<path d="M237.593 200.447H235.911V202.128H237.593V200.447Z" fill="#FAFAFA"/>
<path d="M234.927 152.562H233.245V154.244H234.927V152.562Z" fill="#FAFAFA"/>
<path d="M234.927 155.382H233.245V157.064H234.927V155.382Z" fill="#FAFAFA"/>
<path d="M234.927 158.197H233.245V159.878H234.927V158.197Z" fill="#FAFAFA"/>
<path d="M234.927 161.011H233.245V162.692H234.927V161.011Z" fill="#FAFAFA"/>
<path d="M234.927 163.831H233.245V165.513H234.927V163.831Z" fill="#FAFAFA"/>
<path d="M234.927 166.646H233.245V168.327H234.927V166.646Z" fill="#FAFAFA"/>
<path d="M234.927 169.466H233.245V171.147H234.927V169.466Z" fill="#FAFAFA"/>
<path d="M234.927 172.28H233.245V173.962H234.927V172.28Z" fill="#FAFAFA"/>
<path d="M234.927 175.094H233.245V176.776H234.927V175.094Z" fill="#FAFAFA"/>
<path d="M234.927 177.915H233.245V179.596H234.927V177.915Z" fill="#FAFAFA"/>
<path d="M234.927 180.729H233.245V182.41H234.927V180.729Z" fill="#FAFAFA"/>
<path d="M234.927 183.549H233.245V185.23H234.927V183.549Z" fill="#FAFAFA"/>
<path d="M234.927 186.363H233.245V188.045H234.927V186.363Z" fill="#FAFAFA"/>
<path d="M234.927 189.183H233.245V190.865H234.927V189.183Z" fill="#FAFAFA"/>
<path d="M234.927 191.998H233.245V193.679H234.927V191.998Z" fill="#FAFAFA"/>
<path d="M234.927 194.812H233.245V196.494H234.927V194.812Z" fill="#FAFAFA"/>
<path d="M234.927 197.632H233.245V199.314H234.927V197.632Z" fill="#FAFAFA"/>
<path d="M234.927 200.447H233.245V202.128H234.927V200.447Z" fill="#FAFAFA"/>
<path d="M250.249 173.118H248.567V174.799H250.249V173.118Z" fill="#FAFAFA"/>
<path d="M250.249 175.938H248.567V177.619H250.249V175.938Z" fill="#FAFAFA"/>
<path d="M250.249 178.752H248.567V180.434H250.249V178.752Z" fill="#FAFAFA"/>
<path d="M250.249 181.573H248.567V183.254H250.249V181.573Z" fill="#FAFAFA"/>
<path d="M250.249 184.387H248.567V186.068H250.249V184.387Z" fill="#FAFAFA"/>
<path d="M250.249 187.207H248.567V188.889H250.249V187.207Z" fill="#FAFAFA"/>
<path d="M250.249 190.021H248.567V191.703H250.249V190.021Z" fill="#FAFAFA"/>
<path d="M250.249 192.835H248.567V194.517H250.249V192.835Z" fill="#FAFAFA"/>
<path d="M250.249 195.656H248.567V197.337H250.249V195.656Z" fill="#FAFAFA"/>
<path d="M250.249 198.47H248.567V200.151H250.249V198.47Z" fill="#FAFAFA"/>
<path d="M250.249 201.29H248.567V202.972H250.249V201.29Z" fill="#FAFAFA"/>
<path d="M250.249 204.104H248.567V205.786H250.249V204.104Z" fill="#FAFAFA"/>
<path d="M250.249 206.919H248.567V208.6H250.249V206.919Z" fill="#FAFAFA"/>
<path d="M247.576 173.118H245.895V174.799H247.576V173.118Z" fill="#FAFAFA"/>
<path d="M247.576 175.938H245.895V177.619H247.576V175.938Z" fill="#FAFAFA"/>
<path d="M247.576 178.752H245.895V180.434H247.576V178.752Z" fill="#FAFAFA"/>
<path d="M247.576 181.573H245.895V183.254H247.576V181.573Z" fill="#FAFAFA"/>
<path d="M247.576 184.387H245.895V186.068H247.576V184.387Z" fill="#FAFAFA"/>
<path d="M247.576 187.207H245.895V188.889H247.576V187.207Z" fill="#FAFAFA"/>
<path d="M247.576 190.021H245.895V191.703H247.576V190.021Z" fill="#FAFAFA"/>
<path d="M247.576 192.835H245.895V194.517H247.576V192.835Z" fill="#FAFAFA"/>
<path d="M247.576 195.656H245.895V197.337H247.576V195.656Z" fill="#FAFAFA"/>
<path d="M247.576 198.47H245.895V200.151H247.576V198.47Z" fill="#FAFAFA"/>
<path d="M247.576 201.29H245.895V202.972H247.576V201.29Z" fill="#FAFAFA"/>
<path d="M247.576 204.104H245.895V205.786H247.576V204.104Z" fill="#FAFAFA"/>
<path d="M247.576 206.919H245.895V208.6H247.576V206.919Z" fill="#FAFAFA"/>
<path d="M244.909 173.118H243.228V174.799H244.909V173.118Z" fill="#FAFAFA"/>
<path d="M244.909 175.938H243.228V177.619H244.909V175.938Z" fill="#FAFAFA"/>
<path d="M244.909 178.752H243.228V180.434H244.909V178.752Z" fill="#FAFAFA"/>
<path d="M244.909 181.573H243.228V183.254H244.909V181.573Z" fill="#FAFAFA"/>
<path d="M244.909 184.387H243.228V186.068H244.909V184.387Z" fill="#FAFAFA"/>
<path d="M244.909 187.207H243.228V188.889H244.909V187.207Z" fill="#FAFAFA"/>
<path d="M244.909 190.021H243.228V191.703H244.909V190.021Z" fill="#FAFAFA"/>
<path d="M244.909 192.835H243.228V194.517H244.909V192.835Z" fill="#FAFAFA"/>
<path d="M244.909 195.656H243.228V197.337H244.909V195.656Z" fill="#FAFAFA"/>
<path d="M244.909 198.47H243.228V200.151H244.909V198.47Z" fill="#FAFAFA"/>
<path d="M244.909 201.29H243.228V202.972H244.909V201.29Z" fill="#FAFAFA"/>
<path d="M244.909 204.104H243.228V205.786H244.909V204.104Z" fill="#FAFAFA"/>
<path d="M244.909 206.919H243.228V208.6H244.909V206.919Z" fill="#FAFAFA"/>
<path d="M244.909 209.739H243.228V211.421H244.909V209.739Z" fill="#FAFAFA"/>
<path d="M230.082 173.961H228.4V175.643H230.082V173.961Z" fill="#FAFAFA"/>
<path d="M230.082 176.776H228.4V178.457H230.082V176.776Z" fill="#FAFAFA"/>
<path d="M230.082 179.596H228.4V181.277H230.082V179.596Z" fill="#FAFAFA"/>
<path d="M230.082 182.41H228.4V184.092H230.082V182.41Z" fill="#FAFAFA"/>
<path d="M230.082 185.23H228.4V186.912H230.082V185.23Z" fill="#FAFAFA"/>
<path d="M230.082 188.045H228.4V189.726H230.082V188.045Z" fill="#FAFAFA"/>
<path d="M230.082 190.859H228.4V192.541H230.082V190.859Z" fill="#FAFAFA"/>
<path d="M230.082 193.679H228.4V195.361H230.082V193.679Z" fill="#FAFAFA"/>
<path d="M230.082 196.494H228.4V198.175H230.082V196.494Z" fill="#FAFAFA"/>
<path d="M230.082 199.314H228.4V200.995H230.082V199.314Z" fill="#FAFAFA"/>
<path d="M230.082 207.762H228.4V209.444H230.082V207.762Z" fill="#FAFAFA"/>
<path d="M227.416 173.961H225.734V175.643H227.416V173.961Z" fill="#FAFAFA"/>
<path d="M227.416 176.776H225.734V178.457H227.416V176.776Z" fill="#FAFAFA"/>
<path d="M227.416 179.596H225.734V181.277H227.416V179.596Z" fill="#FAFAFA"/>
<path d="M227.416 182.41H225.734V184.092H227.416V182.41Z" fill="#FAFAFA"/>
<path d="M227.416 185.23H225.734V186.912H227.416V185.23Z" fill="#FAFAFA"/>
<path d="M227.416 188.045H225.734V189.726H227.416V188.045Z" fill="#FAFAFA"/>
<path d="M227.416 190.859H225.734V192.541H227.416V190.859Z" fill="#FAFAFA"/>
<path d="M227.416 193.679H225.734V195.361H227.416V193.679Z" fill="#FAFAFA"/>
<path d="M227.416 196.494H225.734V198.175H227.416V196.494Z" fill="#FAFAFA"/>
<path d="M227.416 204.942H225.734V206.624H227.416V204.942Z" fill="#FAFAFA"/>
<path d="M227.416 207.762H225.734V209.444H227.416V207.762Z" fill="#FAFAFA"/>
<path d="M224.749 173.961H223.067V175.643H224.749V173.961Z" fill="#FAFAFA"/>
<path d="M224.749 176.776H223.067V178.457H224.749V176.776Z" fill="#FAFAFA"/>
<path d="M224.749 179.596H223.067V181.277H224.749V179.596Z" fill="#FAFAFA"/>
<path d="M224.749 182.41H223.067V184.092H224.749V182.41Z" fill="#FAFAFA"/>
<path d="M224.749 185.23H223.067V186.912H224.749V185.23Z" fill="#FAFAFA"/>
<path d="M224.749 188.045H223.067V189.726H224.749V188.045Z" fill="#FAFAFA"/>
<path d="M224.749 190.859H223.067V192.541H224.749V190.859Z" fill="#FAFAFA"/>
<path d="M224.749 193.679H223.067V195.361H224.749V193.679Z" fill="#FAFAFA"/>
<path d="M224.749 202.128H223.067V203.809H224.749V202.128Z" fill="#FAFAFA"/>
<path d="M224.749 204.942H223.067V206.624H224.749V204.942Z" fill="#FAFAFA"/>
<path d="M224.749 207.762H223.067V209.444H224.749V207.762Z" fill="#FAFAFA"/>
<path d="M199.939 131.163H198.258V132.844H199.939V131.163Z" fill="#FAFAFA"/>
<path d="M199.939 133.983H198.258V135.665H199.939V133.983Z" fill="#FAFAFA"/>
<path d="M199.939 136.797H198.258V138.479H199.939V136.797Z" fill="#FAFAFA"/>
<path d="M199.939 139.617H198.258V141.299H199.939V139.617Z" fill="#FAFAFA"/>
<path d="M199.939 142.432H198.258V144.113H199.939V142.432Z" fill="#FAFAFA"/>
<path d="M199.939 145.252H198.258V146.933H199.939V145.252Z" fill="#FAFAFA"/>
<path d="M199.939 148.066H198.258V149.748H199.939V148.066Z" fill="#FAFAFA"/>
<path d="M199.939 150.881H198.258V152.562H199.939V150.881Z" fill="#FAFAFA"/>
<path d="M199.939 153.701H198.258V155.382H199.939V153.701Z" fill="#FAFAFA"/>
<path d="M199.939 156.515H198.258V158.197H199.939V156.515Z" fill="#FAFAFA"/>
<path d="M199.939 159.335H198.258V161.017H199.939V159.335Z" fill="#FAFAFA"/>
<path d="M199.939 162.15H198.258V163.831H199.939V162.15Z" fill="#FAFAFA"/>
<path d="M199.939 164.964H198.258V166.645H199.939V164.964Z" fill="#FAFAFA"/>
<path d="M199.939 167.784H198.258V169.466H199.939V167.784Z" fill="#FAFAFA"/>
<path d="M199.939 170.598H198.258V172.28H199.939V170.598Z" fill="#FAFAFA"/>
<path d="M199.939 173.419H198.258V175.1H199.939V173.419Z" fill="#FAFAFA"/>
<path d="M199.939 176.233H198.258V177.914H199.939V176.233Z" fill="#FAFAFA"/>
<path d="M199.939 181.867H198.258V183.549H199.939V181.867Z" fill="#FAFAFA"/>
<path d="M199.939 184.682H198.258V186.363H199.939V184.682Z" fill="#FAFAFA"/>
<path d="M199.939 187.502H198.258V189.183H199.939V187.502Z" fill="#FAFAFA"/>
<path d="M199.939 190.316H198.258V191.998H199.939V190.316Z" fill="#FAFAFA"/>
<path d="M199.939 193.136H198.258V194.818H199.939V193.136Z" fill="#FAFAFA"/>
<path d="M197.272 131.163H195.591V132.844H197.272V131.163Z" fill="#FAFAFA"/>
<path d="M197.272 133.983H195.591V135.665H197.272V133.983Z" fill="#FAFAFA"/>
<path d="M197.272 136.797H195.591V138.479H197.272V136.797Z" fill="#FAFAFA"/>
<path d="M197.272 139.617H195.591V141.299H197.272V139.617Z" fill="#FAFAFA"/>
<path d="M197.272 142.432H195.591V144.113H197.272V142.432Z" fill="#FAFAFA"/>
<path d="M197.272 145.252H195.591V146.933H197.272V145.252Z" fill="#FAFAFA"/>
<path d="M197.272 148.066H195.591V149.748H197.272V148.066Z" fill="#FAFAFA"/>
<path d="M197.272 150.881H195.591V152.562H197.272V150.881Z" fill="#FAFAFA"/>
<path d="M197.272 153.701H195.591V155.382H197.272V153.701Z" fill="#FAFAFA"/>
<path d="M197.272 156.515H195.591V158.197H197.272V156.515Z" fill="#FAFAFA"/>
<path d="M197.272 159.335H195.591V161.017H197.272V159.335Z" fill="#FAFAFA"/>
<path d="M197.272 162.15H195.591V163.831H197.272V162.15Z" fill="#FAFAFA"/>
<path d="M197.272 164.964H195.591V166.645H197.272V164.964Z" fill="#FAFAFA"/>
<path d="M197.272 167.784H195.591V169.466H197.272V167.784Z" fill="#FAFAFA"/>
<path d="M197.272 170.598H195.591V172.28H197.272V170.598Z" fill="#FAFAFA"/>
<path d="M197.272 173.419H195.591V175.1H197.272V173.419Z" fill="#FAFAFA"/>
<path d="M197.272 190.316H195.591V191.998H197.272V190.316Z" fill="#FAFAFA"/>
<path d="M197.272 193.136H195.591V194.818H197.272V193.136Z" fill="#FAFAFA"/>
<path d="M194.605 131.163H192.924V132.844H194.605V131.163Z" fill="#FAFAFA"/>
<path d="M194.605 133.983H192.924V135.665H194.605V133.983Z" fill="#FAFAFA"/>
<path d="M194.605 136.797H192.924V138.479H194.605V136.797Z" fill="#FAFAFA"/>
<path d="M194.605 139.617H192.924V141.299H194.605V139.617Z" fill="#FAFAFA"/>
<path d="M194.605 142.432H192.924V144.113H194.605V142.432Z" fill="#FAFAFA"/>
<path d="M194.605 145.252H192.924V146.933H194.605V145.252Z" fill="#FAFAFA"/>
<path d="M194.605 148.066H192.924V149.748H194.605V148.066Z" fill="#FAFAFA"/>
<path d="M194.605 150.881H192.924V152.562H194.605V150.881Z" fill="#FAFAFA"/>
<path d="M194.605 153.701H192.924V155.382H194.605V153.701Z" fill="#FAFAFA"/>
<path d="M194.605 156.515H192.924V158.197H194.605V156.515Z" fill="#FAFAFA"/>
<path d="M194.605 159.335H192.924V161.017H194.605V159.335Z" fill="#FAFAFA"/>
<path d="M194.605 162.15H192.924V163.831H194.605V162.15Z" fill="#FAFAFA"/>
<path d="M194.605 164.964H192.924V166.645H194.605V164.964Z" fill="#FAFAFA"/>
<path d="M194.605 167.784H192.924V169.466H194.605V167.784Z" fill="#FAFAFA"/>
<path d="M194.605 170.598H192.924V172.28H194.605V170.598Z" fill="#FAFAFA"/>
<path d="M194.605 173.419H192.924V175.1H194.605V173.419Z" fill="#FAFAFA"/>
<path d="M194.605 179.053H192.924V180.735H194.605V179.053Z" fill="#FAFAFA"/>
<path d="M194.605 181.867H192.924V183.549H194.605V181.867Z" fill="#FAFAFA"/>
<path d="M194.605 184.682H192.924V186.363H194.605V184.682Z" fill="#FAFAFA"/>
<path d="M194.605 187.502H192.924V189.183H194.605V187.502Z" fill="#FAFAFA"/>
<path d="M194.605 193.136H192.924V194.818H194.605V193.136Z" fill="#FAFAFA"/>
<path d="M209.627 166.646H207.945V168.327H209.627V166.646Z" fill="#FAFAFA"/>
<path d="M209.627 169.466H207.945V171.147H209.627V169.466Z" fill="#FAFAFA"/>
<path d="M209.627 172.28H207.945V173.962H209.627V172.28Z" fill="#FAFAFA"/>
<path d="M209.627 175.094H207.945V176.776H209.627V175.094Z" fill="#FAFAFA"/>
<path d="M209.627 177.915H207.945V179.596H209.627V177.915Z" fill="#FAFAFA"/>
<path d="M209.627 180.729H207.945V182.41H209.627V180.729Z" fill="#FAFAFA"/>
<path d="M209.627 183.549H207.945V185.23H209.627V183.549Z" fill="#FAFAFA"/>
<path d="M209.627 189.183H207.945V190.865H209.627V189.183Z" fill="#FAFAFA"/>
<path d="M209.627 191.998H207.945V193.679H209.627V191.998Z" fill="#FAFAFA"/>
<path d="M209.627 194.812H207.945V196.494H209.627V194.812Z" fill="#FAFAFA"/>
<path d="M209.627 197.632H207.945V199.314H209.627V197.632Z" fill="#FAFAFA"/>
<path d="M209.627 200.447H207.945V202.128H209.627V200.447Z" fill="#FAFAFA"/>
<path d="M209.627 203.267H207.945V204.948H209.627V203.267Z" fill="#FAFAFA"/>
<path d="M209.627 206.081H207.945V207.763H209.627V206.081Z" fill="#FAFAFA"/>
<path d="M209.627 208.901H207.945V210.583H209.627V208.901Z" fill="#FAFAFA"/>
<path d="M206.954 166.646H205.272V168.327H206.954V166.646Z" fill="#FAFAFA"/>
<path d="M206.954 169.466H205.272V171.147H206.954V169.466Z" fill="#FAFAFA"/>
<path d="M206.954 172.28H205.272V173.962H206.954V172.28Z" fill="#FAFAFA"/>
<path d="M206.954 175.094H205.272V176.776H206.954V175.094Z" fill="#FAFAFA"/>
<path d="M206.954 177.915H205.272V179.596H206.954V177.915Z" fill="#FAFAFA"/>
<path d="M206.954 180.729H205.272V182.41H206.954V180.729Z" fill="#FAFAFA"/>
<path d="M206.954 189.183H205.272V190.865H206.954V189.183Z" fill="#FAFAFA"/>
<path d="M206.954 191.998H205.272V193.679H206.954V191.998Z" fill="#FAFAFA"/>
<path d="M206.954 194.812H205.272V196.494H206.954V194.812Z" fill="#FAFAFA"/>
<path d="M206.954 197.632H205.272V199.314H206.954V197.632Z" fill="#FAFAFA"/>
<path d="M206.954 200.447H205.272V202.128H206.954V200.447Z" fill="#FAFAFA"/>
<path d="M206.954 203.267H205.272V204.948H206.954V203.267Z" fill="#FAFAFA"/>
<path d="M206.954 206.081H205.272V207.763H206.954V206.081Z" fill="#FAFAFA"/>
<path d="M206.954 208.901H205.272V210.583H206.954V208.901Z" fill="#FAFAFA"/>
<path d="M204.288 166.646H202.606V168.327H204.288V166.646Z" fill="#FAFAFA"/>
<path d="M204.288 169.466H202.606V171.147H204.288V169.466Z" fill="#FAFAFA"/>
<path d="M204.288 172.28H202.606V173.962H204.288V172.28Z" fill="#FAFAFA"/>
<path d="M204.288 175.094H202.606V176.776H204.288V175.094Z" fill="#FAFAFA"/>
<path d="M204.288 177.915H202.606V179.596H204.288V177.915Z" fill="#FAFAFA"/>
<path d="M204.288 180.729H202.606V182.41H204.288V180.729Z" fill="#FAFAFA"/>
<path d="M204.288 186.363H202.606V188.045H204.288V186.363Z" fill="#FAFAFA"/>
<path d="M204.288 189.183H202.606V190.865H204.288V189.183Z" fill="#FAFAFA"/>
<path d="M204.288 191.998H202.606V193.679H204.288V191.998Z" fill="#FAFAFA"/>
<path d="M204.288 194.812H202.606V196.494H204.288V194.812Z" fill="#FAFAFA"/>
<path d="M204.288 197.632H202.606V199.314H204.288V197.632Z" fill="#FAFAFA"/>
<path d="M204.288 200.447H202.606V202.128H204.288V200.447Z" fill="#FAFAFA"/>
<path d="M204.288 203.267H202.606V204.948H204.288V203.267Z" fill="#FAFAFA"/>
<path d="M204.288 206.081H202.606V207.763H204.288V206.081Z" fill="#FAFAFA"/>
<path d="M204.288 208.901H202.606V210.583H204.288V208.901Z" fill="#FAFAFA"/>
<path d="M148.055 150.881H146.373V152.562H148.055V150.881Z" fill="#FAFAFA"/>
<path d="M148.055 153.701H146.373V155.382H148.055V153.701Z" fill="#FAFAFA"/>
<path d="M148.055 156.515H146.373V158.197H148.055V156.515Z" fill="#FAFAFA"/>
<path d="M148.055 159.335H146.373V161.017H148.055V159.335Z" fill="#FAFAFA"/>
<path d="M148.055 162.15H146.373V163.831H148.055V162.15Z" fill="#FAFAFA"/>
<path d="M148.055 164.964H146.373V166.645H148.055V164.964Z" fill="#FAFAFA"/>
<path d="M148.055 167.784H146.373V169.466H148.055V167.784Z" fill="#FAFAFA"/>
<path d="M148.055 170.598H146.373V172.28H148.055V170.598Z" fill="#FAFAFA"/>
<path d="M148.055 173.419H146.373V175.1H148.055V173.419Z" fill="#FAFAFA"/>
<path d="M148.055 176.233H146.373V177.914H148.055V176.233Z" fill="#FAFAFA"/>
<path d="M148.055 179.053H146.373V180.735H148.055V179.053Z" fill="#FAFAFA"/>
<path d="M148.055 181.867H146.373V183.549H148.055V181.867Z" fill="#FAFAFA"/>
<path d="M148.055 184.682H146.373V186.363H148.055V184.682Z" fill="#FAFAFA"/>
<path d="M148.055 190.316H146.373V191.998H148.055V190.316Z" fill="#FAFAFA"/>
<path d="M148.055 193.136H146.373V194.818H148.055V193.136Z" fill="#FAFAFA"/>
<path d="M148.055 195.951H146.373V197.632H148.055V195.951Z" fill="#FAFAFA"/>
<path d="M148.055 198.765H146.373V200.447H148.055V198.765Z" fill="#FAFAFA"/>
<path d="M148.055 204.399H146.373V206.081H148.055V204.399Z" fill="#FAFAFA"/>
<path d="M148.055 207.22H146.373V208.901H148.055V207.22Z" fill="#FAFAFA"/>
<path d="M148.055 210.034H146.373V211.715H148.055V210.034Z" fill="#FAFAFA"/>
<path d="M145.382 150.881H143.7V152.562H145.382V150.881Z" fill="#FAFAFA"/>
<path d="M145.382 153.701H143.7V155.382H145.382V153.701Z" fill="#FAFAFA"/>
<path d="M145.382 156.515H143.7V158.197H145.382V156.515Z" fill="#FAFAFA"/>
<path d="M145.382 159.335H143.7V161.017H145.382V159.335Z" fill="#FAFAFA"/>
<path d="M145.382 162.15H143.7V163.831H145.382V162.15Z" fill="#FAFAFA"/>
<path d="M145.382 164.964H143.7V166.645H145.382V164.964Z" fill="#FAFAFA"/>
<path d="M145.382 167.784H143.7V169.466H145.382V167.784Z" fill="#FAFAFA"/>
<path d="M145.382 170.598H143.7V172.28H145.382V170.598Z" fill="#FAFAFA"/>
<path d="M145.382 173.419H143.7V175.1H145.382V173.419Z" fill="#FAFAFA"/>
<path d="M145.382 176.233H143.7V177.914H145.382V176.233Z" fill="#FAFAFA"/>
<path d="M145.382 179.053H143.7V180.735H145.382V179.053Z" fill="#FAFAFA"/>
<path d="M145.382 181.867H143.7V183.549H145.382V181.867Z" fill="#FAFAFA"/>
<path d="M145.382 184.682H143.7V186.363H145.382V184.682Z" fill="#FAFAFA"/>
<path d="M145.382 193.136H143.7V194.818H145.382V193.136Z" fill="#FAFAFA"/>
<path d="M145.382 195.951H143.7V197.632H145.382V195.951Z" fill="#FAFAFA"/>
<path d="M145.382 201.585H143.7V203.267H145.382V201.585Z" fill="#FAFAFA"/>
<path d="M145.382 204.399H143.7V206.081H145.382V204.399Z" fill="#FAFAFA"/>
<path d="M145.382 207.22H143.7V208.901H145.382V207.22Z" fill="#FAFAFA"/>
<path d="M145.382 210.034H143.7V211.715H145.382V210.034Z" fill="#FAFAFA"/>
<path d="M142.715 150.881H141.033V152.562H142.715V150.881Z" fill="#FAFAFA"/>
<path d="M142.715 153.701H141.033V155.382H142.715V153.701Z" fill="#FAFAFA"/>
<path d="M142.715 156.515H141.033V158.197H142.715V156.515Z" fill="#FAFAFA"/>
<path d="M142.715 159.335H141.033V161.017H142.715V159.335Z" fill="#FAFAFA"/>
<path d="M142.715 162.15H141.033V163.831H142.715V162.15Z" fill="#FAFAFA"/>
<path d="M142.715 164.964H141.033V166.645H142.715V164.964Z" fill="#FAFAFA"/>
<path d="M142.715 167.784H141.033V169.466H142.715V167.784Z" fill="#FAFAFA"/>
<path d="M142.715 170.598H141.033V172.28H142.715V170.598Z" fill="#FAFAFA"/>
<path d="M142.715 173.419H141.033V175.1H142.715V173.419Z" fill="#FAFAFA"/>
<path d="M142.715 176.233H141.033V177.914H142.715V176.233Z" fill="#FAFAFA"/>
<path d="M142.715 179.053H141.033V180.735H142.715V179.053Z" fill="#FAFAFA"/>
<path d="M142.715 181.867H141.033V183.549H142.715V181.867Z" fill="#FAFAFA"/>
<path d="M142.715 184.682H141.033V186.363H142.715V184.682Z" fill="#FAFAFA"/>
<path d="M142.715 187.502H141.033V189.183H142.715V187.502Z" fill="#FAFAFA"/>
<path d="M142.715 193.136H141.033V194.818H142.715V193.136Z" fill="#FAFAFA"/>
<path d="M142.715 198.765H141.033V200.447H142.715V198.765Z" fill="#FAFAFA"/>
<path d="M142.715 201.585H141.033V203.267H142.715V201.585Z" fill="#FAFAFA"/>
<path d="M142.715 204.399H141.033V206.081H142.715V204.399Z" fill="#FAFAFA"/>
<path d="M142.715 207.22H141.033V208.901H142.715V207.22Z" fill="#FAFAFA"/>
<path d="M142.715 210.034H141.033V211.715H142.715V210.034Z" fill="#FAFAFA"/>
<path d="M158.923 166.946H157.241V168.628H158.923V166.946Z" fill="#FAFAFA"/>
<path d="M158.923 169.761H157.241V171.442H158.923V169.761Z" fill="#FAFAFA"/>
<path d="M158.923 172.575H157.241V174.256H158.923V172.575Z" fill="#FAFAFA"/>
<path d="M158.923 175.395H157.241V177.077H158.923V175.395Z" fill="#FAFAFA"/>
<path d="M158.923 178.209H157.241V179.891H158.923V178.209Z" fill="#FAFAFA"/>
<path d="M158.923 181.03H157.241V182.711H158.923V181.03Z" fill="#FAFAFA"/>
<path d="M158.923 189.479H157.241V191.16H158.923V189.479Z" fill="#FAFAFA"/>
<path d="M158.923 192.293H157.241V193.974H158.923V192.293Z" fill="#FAFAFA"/>
<path d="M158.923 195.113H157.241V196.795H158.923V195.113Z" fill="#FAFAFA"/>
<path d="M158.923 197.927H157.241V199.609H158.923V197.927Z" fill="#FAFAFA"/>
<path d="M158.923 200.748H157.241V202.429H158.923V200.748Z" fill="#FAFAFA"/>
<path d="M158.923 203.562H157.241V205.243H158.923V203.562Z" fill="#FAFAFA"/>
<path d="M158.923 206.376H157.241V208.057H158.923V206.376Z" fill="#FAFAFA"/>
<path d="M156.256 166.946H154.574V168.628H156.256V166.946Z" fill="#FAFAFA"/>
<path d="M156.256 169.761H154.574V171.442H156.256V169.761Z" fill="#FAFAFA"/>
<path d="M156.256 172.575H154.574V174.256H156.256V172.575Z" fill="#FAFAFA"/>
<path d="M156.256 175.395H154.574V177.077H156.256V175.395Z" fill="#FAFAFA"/>
<path d="M156.256 178.209H154.574V179.891H156.256V178.209Z" fill="#FAFAFA"/>
<path d="M156.256 181.03H154.574V182.711H156.256V181.03Z" fill="#FAFAFA"/>
<path d="M156.256 189.479H154.574V191.16H156.256V189.479Z" fill="#FAFAFA"/>
<path d="M156.256 192.293H154.574V193.974H156.256V192.293Z" fill="#FAFAFA"/>
<path d="M156.256 195.113H154.574V196.795H156.256V195.113Z" fill="#FAFAFA"/>
<path d="M156.256 197.927H154.574V199.609H156.256V197.927Z" fill="#FAFAFA"/>
<path d="M156.256 200.748H154.574V202.429H156.256V200.748Z" fill="#FAFAFA"/>
<path d="M156.256 203.562H154.574V205.243H156.256V203.562Z" fill="#FAFAFA"/>
<path d="M156.256 209.196H154.574V210.878H156.256V209.196Z" fill="#FAFAFA"/>
<path d="M67.6024 154.539H65.9209V156.22H67.6024V154.539Z" fill="#FAFAFA"/>
<path d="M67.6024 157.359H65.9209V159.04H67.6024V157.359Z" fill="#FAFAFA"/>
<path d="M67.6024 160.173H65.9209V161.855H67.6024V160.173Z" fill="#FAFAFA"/>
<path d="M67.6024 162.988H65.9209V164.669H67.6024V162.988Z" fill="#FAFAFA"/>
<path d="M67.6024 165.808H65.9209V167.489H67.6024V165.808Z" fill="#FAFAFA"/>
<path d="M67.6024 168.622H65.9209V170.304H67.6024V168.622Z" fill="#FAFAFA"/>
<path d="M67.6024 171.442H65.9209V173.124H67.6024V171.442Z" fill="#FAFAFA"/>
<path d="M67.6024 174.256H65.9209V175.938H67.6024V174.256Z" fill="#FAFAFA"/>
<path d="M67.6024 177.077H65.9209V178.758H67.6024V177.077Z" fill="#FAFAFA"/>
<path d="M67.6024 179.891H65.9209V181.572H67.6024V179.891Z" fill="#FAFAFA"/>
<path d="M67.6024 182.705H65.9209V184.387H67.6024V182.705Z" fill="#FAFAFA"/>
<path d="M67.6024 188.34H65.9209V190.021H67.6024V188.34Z" fill="#FAFAFA"/>
<path d="M67.6024 191.16H65.9209V192.841H67.6024V191.16Z" fill="#FAFAFA"/>
<path d="M67.6024 193.974H65.9209V195.656H67.6024V193.974Z" fill="#FAFAFA"/>
<path d="M67.6024 196.789H65.9209V198.47H67.6024V196.789Z" fill="#FAFAFA"/>
<path d="M67.6024 199.609H65.9209V201.29H67.6024V199.609Z" fill="#FAFAFA"/>
<path d="M67.6024 202.423H65.9209V204.105H67.6024V202.423Z" fill="#FAFAFA"/>
<path d="M67.6024 205.243H65.9209V206.925H67.6024V205.243Z" fill="#FAFAFA"/>
<path d="M67.6024 208.058H65.9209V209.739H67.6024V208.058Z" fill="#FAFAFA"/>
<path d="M64.9354 154.539H63.2539V156.22H64.9354V154.539Z" fill="#FAFAFA"/>
<path d="M64.9354 157.359H63.2539V159.04H64.9354V157.359Z" fill="#FAFAFA"/>
<path d="M64.9354 160.173H63.2539V161.855H64.9354V160.173Z" fill="#FAFAFA"/>
<path d="M64.9354 162.988H63.2539V164.669H64.9354V162.988Z" fill="#FAFAFA"/>
<path d="M64.9354 165.808H63.2539V167.489H64.9354V165.808Z" fill="#FAFAFA"/>
<path d="M64.9354 168.622H63.2539V170.304H64.9354V168.622Z" fill="#FAFAFA"/>
<path d="M64.9354 171.442H63.2539V173.124H64.9354V171.442Z" fill="#FAFAFA"/>
<path d="M64.9354 174.256H63.2539V175.938H64.9354V174.256Z" fill="#FAFAFA"/>
<path d="M64.9354 177.077H63.2539V178.758H64.9354V177.077Z" fill="#FAFAFA"/>
<path d="M64.9354 179.891H63.2539V181.572H64.9354V179.891Z" fill="#FAFAFA"/>
<path d="M64.9354 182.705H63.2539V184.387H64.9354V182.705Z" fill="#FAFAFA"/>
<path d="M64.9354 185.525H63.2539V187.207H64.9354V185.525Z" fill="#FAFAFA"/>
<path d="M64.9354 188.34H63.2539V190.021H64.9354V188.34Z" fill="#FAFAFA"/>
<path d="M64.9354 191.16H63.2539V192.841H64.9354V191.16Z" fill="#FAFAFA"/>
<path d="M64.9354 193.974H63.2539V195.656H64.9354V193.974Z" fill="#FAFAFA"/>
<path d="M64.9354 196.789H63.2539V198.47H64.9354V196.789Z" fill="#FAFAFA"/>
<path d="M64.9354 199.609H63.2539V201.29H64.9354V199.609Z" fill="#FAFAFA"/>
<path d="M64.9354 202.423H63.2539V204.105H64.9354V202.423Z" fill="#FAFAFA"/>
<path d="M64.9354 205.243H63.2539V206.925H64.9354V205.243Z" fill="#FAFAFA"/>
<path d="M64.9354 208.058H63.2539V209.739H64.9354V208.058Z" fill="#FAFAFA"/>
<path d="M80.7469 165.513H79.0654V167.194H80.7469V165.513Z" fill="#FAFAFA"/>
<path d="M80.7469 168.327H79.0654V170.008H80.7469V168.327Z" fill="#FAFAFA"/>
<path d="M80.7469 171.141H79.0654V172.823H80.7469V171.141Z" fill="#FAFAFA"/>
<path d="M80.7469 173.961H79.0654V175.643H80.7469V173.961Z" fill="#FAFAFA"/>
<path d="M80.7469 176.776H79.0654V178.457H80.7469V176.776Z" fill="#FAFAFA"/>
<path d="M80.7469 179.596H79.0654V181.277H80.7469V179.596Z" fill="#FAFAFA"/>
<path d="M80.7469 182.41H79.0654V184.092H80.7469V182.41Z" fill="#FAFAFA"/>
<path d="M80.7469 185.23H79.0654V186.912H80.7469V185.23Z" fill="#FAFAFA"/>
<path d="M80.7469 188.045H79.0654V189.726H80.7469V188.045Z" fill="#FAFAFA"/>
<path d="M80.7469 190.859H79.0654V192.541H80.7469V190.859Z" fill="#FAFAFA"/>
<path d="M78.0809 165.513H76.3994V167.194H78.0809V165.513Z" fill="#FAFAFA"/>
<path d="M78.0809 168.327H76.3994V170.008H78.0809V168.327Z" fill="#FAFAFA"/>
<path d="M78.0809 171.141H76.3994V172.823H78.0809V171.141Z" fill="#FAFAFA"/>
<path d="M78.0809 173.961H76.3994V175.643H78.0809V173.961Z" fill="#FAFAFA"/>
<path d="M78.0809 176.776H76.3994V178.457H78.0809V176.776Z" fill="#FAFAFA"/>
<path d="M78.0809 179.596H76.3994V181.277H78.0809V179.596Z" fill="#FAFAFA"/>
<path d="M78.0809 182.41H76.3994V184.092H78.0809V182.41Z" fill="#FAFAFA"/>
<path d="M78.0809 185.23H76.3994V186.912H78.0809V185.23Z" fill="#FAFAFA"/>
<path d="M78.0809 188.045H76.3994V189.726H78.0809V188.045Z" fill="#FAFAFA"/>
<path d="M147.5 252.26C210.678 252.26 261.895 249.27 261.895 245.582C261.895 241.893 210.678 238.903 147.5 238.903C84.3209 238.903 33.1045 241.893 33.1045 245.582C33.1045 249.27 84.3209 252.26 147.5 252.26Z" fill="#F5F5F5"/>
<path d="M180.7 46.5332C180.7 46.5332 180.912 57.2712 185.638 58.2034C190.364 59.1356 196.848 46.5332 196.848 46.5332C196.848 46.5332 192.889 59.0412 194.187 60.9587C195.485 62.8762 212.288 55.4009 212.288 55.4009C212.288 55.4009 202.122 67.3779 203.238 69.4429C204.353 71.5079 212.288 70.5757 212.288 70.5757C212.288 70.5757 204.028 71.7557 203.727 75.7087C203.426 79.6617 221.162 85.0425 221.162 85.0425C221.162 85.0425 204.459 84.1103 203.238 86.9128C202.016 89.7153 207.155 96.0991 207.155 96.0991C207.155 96.0991 202.559 90.7006 198.11 91.5797C193.662 92.4588 199.29 112.578 199.29 112.578C199.29 112.578 188.771 99.3382 186.31 99.3087C183.85 99.2792 183.054 110.058 183.054 110.058C183.054 110.058 182.057 99.4385 180.027 99.4916C177.997 99.5447 175.083 112.578 175.083 112.578C175.083 112.578 177.071 98.6597 175.083 97.8278C173.094 96.9959 159.601 114.07 159.601 114.07C159.601 114.07 167.094 95.3085 166.245 93.804C165.395 92.2995 152.568 97.7924 152.568 97.7924C152.568 97.7924 162.84 89.7094 161.896 86.4467C160.952 83.184 140.656 82.9421 140.656 82.9421C140.656 82.9421 157.766 79.9095 159.601 78.0392C161.436 76.1689 149.494 65.2067 149.494 65.2067C149.494 65.2067 162.321 68.7054 163.861 67.7732C165.401 66.841 159.389 53.3005 157.141 50.0319C157.141 50.0319 167.029 61.6136 170.062 60.9587C173.094 60.3038 172.664 49.0997 172.664 49.0997C172.664 49.0997 176.133 55.867 178.463 55.867C180.794 55.867 180.7 46.5332 180.7 46.5332Z" fill="#72BF44"/>
<path opacity="0.8" d="M180.7 46.5332C180.7 46.5332 180.912 57.2712 185.638 58.2034C190.364 59.1356 196.848 46.5332 196.848 46.5332C196.848 46.5332 192.889 59.0412 194.187 60.9587C195.485 62.8762 212.288 55.4009 212.288 55.4009C212.288 55.4009 202.122 67.3779 203.238 69.4429C204.353 71.5079 212.288 70.5757 212.288 70.5757C212.288 70.5757 204.028 71.7557 203.727 75.7087C203.426 79.6617 221.162 85.0425 221.162 85.0425C221.162 85.0425 204.459 84.1103 203.238 86.9128C202.016 89.7153 207.155 96.0991 207.155 96.0991C207.155 96.0991 202.559 90.7006 198.11 91.5797C193.662 92.4588 199.29 112.578 199.29 112.578C199.29 112.578 188.771 99.3382 186.31 99.3087C183.85 99.2792 183.054 110.058 183.054 110.058C183.054 110.058 182.057 99.4385 180.027 99.4916C177.997 99.5447 175.083 112.578 175.083 112.578C175.083 112.578 177.071 98.6597 175.083 97.8278C173.094 96.9959 159.601 114.07 159.601 114.07C159.601 114.07 167.094 95.3085 166.245 93.804C165.395 92.2995 152.568 97.7924 152.568 97.7924C152.568 97.7924 162.84 89.7094 161.896 86.4467C160.952 83.184 140.656 82.9421 140.656 82.9421C140.656 82.9421 157.766 79.9095 159.601 78.0392C161.436 76.1689 149.494 65.2067 149.494 65.2067C149.494 65.2067 162.321 68.7054 163.861 67.7732C165.401 66.841 159.389 53.3005 157.141 50.0319C157.141 50.0319 167.029 61.6136 170.062 60.9587C173.094 60.3038 172.664 49.0997 172.664 49.0997C172.664 49.0997 176.133 55.867 178.463 55.867C180.794 55.867 180.7 46.5332 180.7 46.5332Z" fill="white"/>
<path opacity="0.4" d="M200.544 82.2457C202.824 72.5826 196.84 62.9003 187.177 60.6196C177.514 58.3389 167.831 64.3235 165.55 73.9866C163.27 83.6497 169.254 93.332 178.917 95.6127C188.581 97.8934 198.263 91.9088 200.544 82.2457Z" fill="white"/>
<path d="M261.895 207.35H29.3525V237.729H261.895V207.35Z" fill="#263238"/>
<path opacity="0.6" d="M261.895 207.35H29.3525V237.729H261.895V207.35Z" fill="white"/>
<path opacity="0.2" d="M54.3268 211.291H33.1045V217.852H54.3268V211.291Z" fill="white"/>
<path opacity="0.2" d="M76.5524 211.291H55.3301V217.852H76.5524V211.291Z" fill="white"/>
<path opacity="0.2" d="M128.88 221.291H107.657V227.852H128.88V221.291Z" fill="white"/>
<path opacity="0.2" d="M168.339 210.494H147.116V217.055H168.339V210.494Z" fill="white"/>
<path opacity="0.2" d="M180.003 218.453H158.78V225.014H180.003V218.453Z" fill="white"/>
<path opacity="0.2" d="M257.494 229.18H236.271V235.74H257.494V229.18Z" fill="white"/>
<path opacity="0.2" d="M234.737 229.286H213.515V235.847H234.737V229.286Z" fill="white"/>
<path opacity="0.2" d="M245.345 221.291H224.123V227.852H245.345V221.291Z" fill="white"/>
<path opacity="0.2" d="M64.9352 218.453H43.7129V225.014H64.9352V218.453Z" fill="white"/>
<path opacity="0.2" d="M119.782 229.18H98.5596V235.74H119.782V229.18Z" fill="white"/>
<path d="M263.081 203.025H28.2725V209.314H263.081V203.025Z" fill="#263238"/>
<path opacity="0.7" d="M263.081 203.025H28.2725V209.314H263.081V203.025Z" fill="white"/>
<path d="M83.7802 235.481H82.0869V243.741H83.7802V235.481Z" fill="#72BF44"/>
<path d="M130.231 235.481H128.538V243.741H130.231V235.481Z" fill="#72BF44"/>
<path d="M150.085 178.811H142.202V243.776H150.085V178.811Z" fill="#72BF44"/>
<path opacity="0.6" d="M83.7802 235.481H82.0869V243.741H83.7802V235.481Z" fill="white"/>
<path opacity="0.6" d="M130.231 235.481H128.538V243.741H130.231V235.481Z" fill="white"/>
<path opacity="0.6" d="M150.085 178.811H142.202V243.776H150.085V178.811Z" fill="white"/>
<path d="M160.823 245.18H72.5645L75.0661 242.307H158.315L160.823 245.18Z" fill="#72BF44"/>
<path opacity="0.2" d="M160.823 245.18H135.199L137.707 242.307H158.315L160.823 245.18Z" fill="white"/>
<path d="M107.587 174.115L80.0931 237.357C80.0025 237.568 79.9656 237.799 79.9859 238.028C80.0061 238.257 80.0827 238.477 80.2089 238.67C80.3351 238.862 80.507 239.02 80.7092 239.13C80.9114 239.239 81.1376 239.297 81.3675 239.298H128.497C128.841 239.298 129.178 239.198 129.466 239.009C129.755 238.82 129.981 238.552 130.119 238.236L157.613 174.994C157.705 174.783 157.744 174.552 157.724 174.322C157.705 174.092 157.628 173.871 157.502 173.678C157.375 173.486 157.202 173.327 156.999 173.218C156.796 173.109 156.569 173.052 156.339 173.053H109.21C108.865 173.053 108.528 173.153 108.24 173.342C107.952 173.53 107.725 173.799 107.587 174.115Z" fill="#72BF44"/>
<path opacity="0.7" d="M107.587 174.115L80.0931 237.357C80.0025 237.568 79.9656 237.799 79.9859 238.028C80.0061 238.257 80.0827 238.477 80.2089 238.67C80.3351 238.862 80.507 239.02 80.7092 239.13C80.9114 239.239 81.1376 239.297 81.3675 239.298H128.497C128.841 239.298 129.178 239.198 129.466 239.009C129.755 238.82 129.981 238.552 130.119 238.236L157.613 174.994C157.705 174.783 157.744 174.552 157.724 174.322C157.705 174.092 157.628 173.871 157.502 173.678C157.375 173.486 157.202 173.327 156.999 173.218C156.796 173.109 156.569 173.052 156.339 173.053H109.21C108.865 173.053 108.528 173.153 108.24 173.342C107.952 173.53 107.725 173.799 107.587 174.115Z" fill="white"/>
<path opacity="0.2" d="M123.747 213.775L132.066 194.635H113.829L105.504 213.775H123.747Z" fill="black"/>
<path opacity="0.2" d="M83.0312 236.307C82.8912 236.307 82.7543 236.348 82.6379 236.426C82.5215 236.504 82.4307 236.614 82.3771 236.744C82.3235 236.873 82.3095 237.015 82.3368 237.153C82.3642 237.29 82.4316 237.416 82.5306 237.515C82.6296 237.614 82.7558 237.682 82.8931 237.709C83.0305 237.736 83.1728 237.722 83.3022 237.669C83.4316 237.615 83.5421 237.524 83.6199 237.408C83.6977 237.292 83.7392 237.155 83.7392 237.015C83.7392 236.827 83.6646 236.647 83.5319 236.514C83.3991 236.381 83.219 236.307 83.0312 236.307Z" fill="black"/>
<path opacity="0.2" d="M126.969 236.307C126.829 236.308 126.693 236.35 126.577 236.429C126.461 236.507 126.371 236.618 126.319 236.748C126.266 236.877 126.253 237.019 126.281 237.156C126.309 237.293 126.377 237.419 126.476 237.517C126.575 237.616 126.701 237.683 126.839 237.709C126.976 237.736 127.118 237.722 127.247 237.668C127.376 237.614 127.486 237.524 127.564 237.407C127.641 237.291 127.683 237.154 127.683 237.015C127.683 236.921 127.664 236.829 127.628 236.742C127.592 236.656 127.54 236.578 127.473 236.512C127.407 236.446 127.328 236.394 127.241 236.359C127.155 236.324 127.062 236.306 126.969 236.307Z" fill="black"/>
<path opacity="0.2" d="M109.929 174.829C109.789 174.829 109.652 174.87 109.535 174.948C109.419 175.026 109.328 175.137 109.275 175.266C109.221 175.395 109.207 175.538 109.234 175.675C109.262 175.812 109.329 175.938 109.428 176.037C109.527 176.137 109.653 176.204 109.791 176.231C109.928 176.259 110.07 176.245 110.2 176.191C110.329 176.137 110.44 176.047 110.517 175.93C110.595 175.814 110.637 175.677 110.637 175.537C110.635 175.35 110.56 175.17 110.428 175.038C110.295 174.905 110.116 174.83 109.929 174.829Z" fill="black"/>
<path opacity="0.2" d="M153.866 174.829C153.726 174.829 153.589 174.87 153.473 174.948C153.356 175.026 153.266 175.137 153.212 175.266C153.159 175.395 153.144 175.538 153.172 175.675C153.199 175.812 153.267 175.938 153.366 176.037C153.465 176.137 153.591 176.204 153.728 176.231C153.865 176.259 154.008 176.245 154.137 176.191C154.267 176.137 154.377 176.047 154.455 175.93C154.533 175.814 154.574 175.677 154.574 175.537C154.574 175.349 154.5 175.169 154.367 175.036C154.234 174.903 154.054 174.829 153.866 174.829Z" fill="black"/>
<path d="M161.277 235.481H159.584V243.741H161.277V235.481Z" fill="#72BF44"/>
<path d="M207.722 235.481H206.028V243.741H207.722V235.481Z" fill="#72BF44"/>
<path d="M227.581 178.811H219.698V243.776H227.581V178.811Z" fill="#72BF44"/>
<path opacity="0.6" d="M161.277 235.481H159.584V243.741H161.277V235.481Z" fill="white"/>
<path opacity="0.6" d="M207.722 235.481H206.028V243.741H207.722V235.481Z" fill="white"/>
<path opacity="0.6" d="M227.581 178.811H219.698V243.776H227.581V178.811Z" fill="white"/>
<path d="M245.429 150.096L206.406 239.853H148.675L187.697 150.096H245.429Z" fill="#263238"/>
<path opacity="0.6" d="M245.429 150.096L206.406 239.853H148.675L187.697 150.096H245.429Z" fill="white"/>
<path d="M221.463 202.028H208.453L203.361 213.745H216.371L221.463 202.028Z" fill="#263238"/>
<path d="M197.751 226.654H210.76L215.852 214.937H202.843L197.751 226.654Z" fill="#263238"/>
<path d="M207.285 202.028H194.275L189.184 213.745H202.193L207.285 202.028Z" fill="#263238"/>
<path d="M238.301 163.294H225.292L220.2 175.012H233.21L238.301 163.294Z" fill="#263238"/>
<path d="M183.567 226.654H196.577L201.674 214.937H188.665L183.567 226.654Z" fill="#263238"/>
<path d="M227.08 189.119H214.064L208.973 200.836H221.982L227.08 189.119Z" fill="#263238"/>
<path d="M232.69 176.209H219.681L214.583 187.921H227.592L232.69 176.209Z" fill="#263238"/>
<path d="M179.449 200.836L184.541 189.119H171.903L166.812 200.836H179.449Z" fill="#263238"/>
<path d="M173.832 213.745L178.93 202.028H166.292L161.194 213.745H173.832Z" fill="#263238"/>
<path d="M195.769 163.294H183.125L178.033 175.012H190.677L195.769 163.294Z" fill="#263238"/>
<path d="M168.221 226.654L173.318 214.937H160.675L155.583 226.654H168.221Z" fill="#263238"/>
<path d="M185.06 187.921L190.157 176.209H177.514L172.422 187.921H185.06Z" fill="#263238"/>
<path d="M243.523 151.294H230.514L225.812 162.103H238.821L243.523 151.294Z" fill="#263238"/>
<path d="M210.241 227.846H197.232L192.529 238.661H205.539L210.241 227.846Z" fill="#263238"/>
<path d="M167.702 227.846H155.065L150.362 238.661H163L167.702 227.846Z" fill="#263238"/>
<path d="M196.287 162.103L200.984 151.294H188.346L183.644 162.103H196.287Z" fill="#263238"/>
<path d="M198.718 189.119H185.709L180.617 200.836H193.627L198.718 189.119Z" fill="#263238"/>
<path d="M193.107 202.028H180.098L175.006 213.745H188.015L193.107 202.028Z" fill="#263238"/>
<path d="M229.346 151.294H216.336L211.634 162.103H224.643L229.346 151.294Z" fill="#263238"/>
<path d="M196.063 227.846H183.048L178.352 238.661H191.361L196.063 227.846Z" fill="#263238"/>
<path d="M224.124 163.294H211.114L206.022 175.012H219.032L224.124 163.294Z" fill="#263238"/>
<path d="M218.512 176.209H205.503L200.405 187.921H213.415L218.512 176.209Z" fill="#263238"/>
<path d="M169.39 226.654H182.399L187.497 214.937H174.487L169.39 226.654Z" fill="#263238"/>
<path d="M177.183 238.661L181.88 227.846H168.87L164.174 238.661H177.183Z" fill="#263238"/>
<path d="M215.168 151.294H202.158L197.456 162.103H210.466L215.168 151.294Z" fill="#263238"/>
<path d="M212.896 189.119H199.887L194.795 200.836H207.804L212.896 189.119Z" fill="#263238"/>
<path d="M209.946 163.294H196.936L191.845 175.012H204.854L209.946 163.294Z" fill="#263238"/>
<path d="M204.335 176.209H191.325L186.228 187.921H199.237L204.335 176.209Z" fill="#263238"/>
<g opacity="0.1">
<path d="M224.944 150.096L173.254 183.331L187.697 150.096H224.944Z" fill="white"/>
<path d="M241.488 150.096L166.835 198.092L170.351 190.004L232.425 150.096H241.488Z" fill="white"/>
<path d="M242.077 157.807L240.313 161.855L160.191 213.362L161.956 209.308L242.077 157.807Z" fill="white"/>
</g>
<g opacity="0.1">
<path d="M209.391 232.991L206.406 239.853H198.712L209.391 232.991Z" fill="white"/>
<path d="M214.459 221.327L211.68 227.722L192.812 239.853H185.644L214.459 221.327Z" fill="white"/>
<path d="M219.693 209.291L218.306 212.477L175.72 239.853H172.145L219.693 209.291Z" fill="white"/>
</g>
<path d="M240.708 245.18H152.444L154.952 242.307H238.201L240.708 245.18Z" fill="#72BF44"/>
<path opacity="0.2" d="M240.709 245.18H215.085L217.592 242.307H238.201L240.709 245.18Z" fill="white"/>
<path d="M131.051 230.047H117.823V231.02H119.416L122.685 235.085H123.275L120 231.02H131.051V230.047Z" fill="#263238"/>
<path opacity="0.2" d="M131.051 230.047H117.823V231.02H119.416L122.685 235.085H123.275L120 231.02H131.051V230.047Z" fill="white"/>
<path d="M148.781 226.483C148.089 224.444 146.634 222.753 144.722 221.763H124.839L122.325 222.943L126.196 234.43H146.073L148.592 233.25C149.46 231.089 149.527 228.689 148.781 226.483Z" fill="#263238"/>
<path d="M146.143 234.425H114.147V247.399H146.143V234.425Z" fill="#263238"/>
<path opacity="0.2" d="M146.143 234.425H126.26V247.399H146.143V234.425Z" fill="white"/>
<path opacity="0.2" d="M148.591 233.233H128.714C129.578 231.077 129.645 228.684 128.903 226.483C128.209 224.443 126.752 222.752 124.838 221.763H144.721C146.633 222.753 148.088 224.444 148.78 226.483C149.522 228.684 149.455 231.077 148.591 233.233Z" fill="white"/>
<path opacity="0.1" d="M148.592 233.233L146.072 234.424H126.195L128.715 233.233H148.592Z" fill="white"/>
<path opacity="0.2" d="M134.549 226.654C136.493 227.578 138.592 228.128 140.739 228.277C143.93 228.395 144.869 226.654 144.869 226.654L144.426 225.291C144.426 225.291 143.659 226.542 141.364 226.79C139.069 227.038 134.172 225.244 134.172 225.244L134.549 226.654Z" fill="black"/>
<path d="M134.166 225.244C134.166 225.244 137.317 223.687 140.155 223.958C141.666 224.037 143.133 224.496 144.42 225.291L144.863 226.654C144.863 226.654 140.591 224.011 134.55 226.654L134.166 225.244Z" fill="#263238"/>
<path d="M71.9192 97.7715L70.7998 185.627L128.527 186.363L129.646 98.5071L71.9192 97.7715Z" fill="#263238"/>
<path opacity="0.6" d="M71.9192 97.7715L70.7998 185.627L128.527 186.363L129.646 98.5071L71.9192 97.7715Z" fill="white"/>
<path d="M114.606 149.148L114.46 160.617L127.468 160.783L127.615 149.314L114.606 149.148Z" fill="#263238"/>
<path d="M114.443 161.788L114.297 173.256L127.305 173.422L127.451 161.953L114.443 161.788Z" fill="#263238"/>
<path d="M100.424 148.968L100.278 160.436L113.287 160.602L113.433 149.133L100.424 148.968Z" fill="#263238"/>
<path d="M115.088 111.236L114.941 122.704L127.95 122.87L128.096 111.401L115.088 111.236Z" fill="#263238"/>
<path d="M100.268 161.601L100.122 173.07L113.131 173.236L113.277 161.767L100.268 161.601Z" fill="#263238"/>
<path d="M114.762 136.514L114.616 147.983L127.625 148.149L127.771 136.68L114.762 136.514Z" fill="#263238"/>
<path d="M114.924 123.875L114.778 135.344L127.787 135.509L127.933 124.041L114.924 123.875Z" fill="#263238"/>
<path d="M72.6041 135.97L72.458 147.438L85.0948 147.599L85.2409 136.131L72.6041 135.97Z" fill="#263238"/>
<path d="M72.442 148.609L72.2959 160.078L84.9327 160.239L85.0788 148.77L72.442 148.609Z" fill="#263238"/>
<path d="M72.9293 110.703L72.7832 122.171L85.42 122.332L85.5661 110.864L72.9293 110.703Z" fill="#263238"/>
<path d="M72.2799 161.249L72.1338 172.717L84.7706 172.878L84.9167 161.41L72.2799 161.249Z" fill="#263238"/>
<path d="M72.7662 123.336L72.6201 134.805L85.2569 134.966L85.403 123.497L72.7662 123.336Z" fill="#263238"/>
<path d="M115.237 99.4868L115.103 110.071L128.111 110.236L128.246 99.6526L115.237 99.4868Z" fill="#263238"/>
<path d="M114.281 174.421L114.146 185.005L127.155 185.171L127.29 174.587L114.281 174.421Z" fill="#263238"/>
<path d="M72.1173 173.883L71.9824 184.466L84.6192 184.627L84.7541 174.044L72.1173 173.883Z" fill="#263238"/>
<path d="M73.0802 98.9478L72.9453 109.531L85.5821 109.693L85.7169 99.1088L73.0802 98.9478Z" fill="#263238"/>
<path d="M86.4118 136.154L86.2656 147.622L99.2741 147.788L99.4202 136.319L86.4118 136.154Z" fill="#263238"/>
<path d="M86.2555 148.787L86.1094 160.256L99.1178 160.422L99.2639 148.953L86.2555 148.787Z" fill="#263238"/>
<path d="M101.057 99.3064L100.922 109.89L113.93 110.056L114.065 99.4721L101.057 99.3064Z" fill="#263238"/>
<path d="M100.107 174.241L99.9717 184.825L112.98 184.99L113.115 174.407L100.107 174.241Z" fill="#263238"/>
<path d="M100.912 111.055L100.766 122.524L113.774 122.69L113.92 111.221L100.912 111.055Z" fill="#263238"/>
<path d="M100.75 123.695L100.604 135.163L113.612 135.329L113.758 123.86L100.75 123.695Z" fill="#263238"/>
<path d="M86.0866 161.421L85.9404 172.889L98.9489 173.055L99.095 161.586L86.0866 161.421Z" fill="#263238"/>
<path d="M85.9308 174.061L85.7959 184.644L98.8043 184.81L98.9392 174.226L85.9308 174.061Z" fill="#263238"/>
<path d="M86.8868 99.126L86.752 109.71L99.7604 109.875L99.8952 99.2917L86.8868 99.126Z" fill="#263238"/>
<path d="M100.592 136.334L100.446 147.803L113.455 147.968L113.601 136.5L100.592 136.334Z" fill="#263238"/>
<path d="M86.7301 110.875L86.584 122.343L99.5924 122.509L99.7386 111.04L86.7301 110.875Z" fill="#263238"/>
<path d="M86.5739 123.508L86.4277 134.977L99.4362 135.143L99.5823 123.674L86.5739 123.508Z" fill="#263238"/>
<g opacity="0.1">
<path d="M109.168 98.241L71.5088 130.296L71.9277 97.769L109.168 98.241Z" fill="white"/>
<path d="M125.711 98.4534L71.3252 144.745L71.4255 136.827L116.649 98.3354L125.711 98.4534Z" fill="white"/>
<path d="M129.553 106.047L129.5 110.017L71.1309 159.689L71.184 155.725L129.553 106.047Z" fill="white"/>
</g>
<g opacity="0.1">
<path d="M128.614 179.637L128.526 186.358L120.838 186.257L128.614 179.637Z" fill="white"/>
<path d="M128.762 168.227L128.679 174.481L114.938 186.186L107.77 186.092L128.762 168.227Z" fill="white"/>
<path d="M128.909 156.439L128.868 159.56L97.8459 185.968L94.2705 185.921L128.909 156.439Z" fill="white"/>
</g>
<path d="M68.3456 125.292C68.3456 125.292 61.2243 128.449 58.9056 125.623C56.5869 122.797 69.2011 107.882 69.2011 107.882C69.2011 107.882 69.4076 103.498 70.033 102.725C70.6281 102.119 71.3151 101.612 72.0685 101.22L72.5346 109.84L71.2248 109.964C71.2248 109.964 64.4752 119.05 64.5991 119.835C64.723 120.62 68.3397 118.974 68.3397 118.974L68.3456 125.292Z" fill="#E4897B"/>
<path d="M84.8595 147.937C84.8595 147.937 90.7595 135.352 90.3229 132.378C89.8863 129.405 79.9625 142.308 79.9625 142.308L79.166 146.727L84.8595 147.937Z" fill="#72BF44"/>
<path opacity="0.4" d="M84.8595 147.937C84.8595 147.937 90.7595 135.352 90.3229 132.378C89.8863 129.405 79.9625 142.308 79.9625 142.308L79.166 146.727L84.8595 147.937Z" fill="white"/>
<path opacity="0.2" d="M84.4582 147.606C84.4582 147.606 90.3582 135.022 89.9157 132.042C89.4732 129.063 79.5553 141.972 79.5553 141.972L78.7588 146.391L84.4582 147.606Z" fill="black"/>
<path d="M94.459 243.287L99.0964 243.77L99.3265 241.086L99.9637 233.782L95.3263 233.286L94.6242 241.363L94.459 243.287Z" fill="#E4897B"/>
<path d="M54.1973 242.697H58.6872L58.9055 241.688L58.935 241.558L60.3333 235.074L60.3628 234.944L60.8997 232.46H56.4039L54.1973 242.697Z" fill="#E4897B"/>
<path opacity="0.2" d="M95.3261 233.286L94.624 241.363L99.3263 241.086L99.9635 233.782L95.3261 233.286Z" fill="black"/>
<path opacity="0.2" d="M54.3271 242.13H54.333L58.9291 241.558H58.935L60.2979 235.304H60.292L55.7254 235.664L54.3684 241.936L54.3271 242.13Z" fill="black"/>
<path d="M59.3069 242.425H53.8494C53.7601 242.426 53.6739 242.458 53.6052 242.515C53.5364 242.572 53.4893 242.65 53.4718 242.738L52.5809 246.732C52.5457 246.905 52.5799 247.085 52.6759 247.232C52.7719 247.38 52.9221 247.485 53.0942 247.523H53.2417C55.0117 247.493 56.292 247.387 58.5104 247.387C59.8733 247.387 63.9915 247.529 65.8795 247.529C67.7675 247.529 68.0094 245.664 67.2365 245.493C63.7732 244.738 61.1713 243.694 60.0621 242.702C59.8548 242.517 59.5847 242.418 59.3069 242.425Z" fill="#263238"/>
<path d="M99.5861 242.283H94.1286C94.0395 242.284 93.9531 242.314 93.8835 242.37C93.8139 242.426 93.7651 242.503 93.7452 242.59L92.8602 246.591C92.842 246.676 92.8409 246.764 92.857 246.849C92.873 246.935 92.9058 247.017 92.9535 247.09C93.0012 247.163 93.0629 247.225 93.135 247.274C93.207 247.323 93.2881 247.358 93.3734 247.375C93.4224 247.381 93.472 247.381 93.5209 247.375C95.2909 247.346 96.5712 247.239 98.7837 247.239C100.153 247.239 104.271 247.381 106.153 247.381C108.035 247.381 108.289 245.517 107.516 245.346C104.052 244.59 101.451 243.546 100.341 242.555C100.133 242.372 99.8632 242.275 99.5861 242.283Z" fill="#263238"/>
<path d="M100.388 239.269L93.7568 239.481C96.1699 195.172 97.2968 192.912 75.7854 171.985C75.2839 178.316 74.7175 184.882 74.1629 190.358C73.8148 193.744 73.7145 196.7 73.1481 198.871C69.319 213.545 60.1091 239.522 60.1091 239.522L53.6191 239.811C53.6191 239.811 61.7139 204.211 62.5458 192.611C63.6373 177.389 54.1737 159.855 63.3777 143.376L84.8478 147.553L84.6944 152.863C105.209 182.817 108.961 189.296 100.388 239.269Z" fill="#72BF44"/>
<path opacity="0.4" d="M100.388 239.269L93.7568 239.481C96.1699 195.172 97.2968 192.912 75.7854 171.985C75.2839 178.316 74.7175 184.882 74.1629 190.358C73.8148 193.744 73.7145 196.7 73.1481 198.871C69.319 213.545 60.1091 239.522 60.1091 239.522L53.6191 239.811C53.6191 239.811 61.7139 204.211 62.5458 192.611C63.6373 177.389 54.1737 159.855 63.3777 143.376L84.8478 147.553L84.6944 152.863C105.209 182.817 108.961 189.296 100.388 239.269Z" fill="white"/>
<path d="M96.1699 131.659C96.1699 131.659 108.383 133.865 110.713 133.488C113.044 133.11 125.375 123.369 125.375 123.369C125.375 123.369 129.446 123.145 129.658 121.764C129.871 120.384 130.425 117.912 129.257 117.994C128.089 118.077 124.679 119.593 124.679 119.593L124.236 120.726C124.236 120.726 110.666 128.933 110.129 129.11C109.592 129.287 97.9045 126.089 97.9045 126.089L96.1699 131.659Z" fill="#E4897B"/>
<path d="M74.063 115.64C70.051 115.64 66.5995 118.23 62.9297 120.071L65.5729 126.655L73.9981 126.124L74.063 115.64Z" fill="#72BF44"/>
<path d="M94.2757 114.672C94.1477 114.825 94.0118 114.971 93.8686 115.109C93.0603 115.899 92.0319 116.425 90.9186 116.619C90.6358 116.667 90.3499 116.695 90.0631 116.702C88.9556 116.742 87.8656 116.418 86.9605 115.778C86.0555 115.139 85.3856 114.219 85.054 113.162C84.1336 110.436 85.2192 108.342 86.7768 104.648C87.1249 103.779 87.6899 103.014 88.4179 102.426C89.1459 101.837 90.0126 101.446 90.9352 101.288C91.8578 101.13 92.8055 101.211 93.6878 101.523C94.5701 101.836 95.3576 102.369 95.9749 103.073C98.7715 106.241 96.6357 111.823 94.2757 114.672Z" fill="#E4897B"/>
<path opacity="0.2" d="M90.9017 116.619C90.6189 116.667 90.333 116.695 90.0462 116.702C89.2869 116.725 88.5319 116.579 87.8367 116.272C87.1415 115.966 86.5236 115.508 86.0283 114.932C86.4011 114.579 86.8175 114.276 87.2673 114.029C88.703 114.525 89.9651 115.424 90.9017 116.619Z" fill="black"/>
<path d="M97.999 104.985C97.7866 104.985 96.1464 106.383 96.0402 106.902C95.5203 108.612 94.354 110.051 92.7893 110.914C91.3969 111.545 89.2493 114.543 89.2493 114.543C89.2493 114.543 86.9365 112.602 84.5293 112.56C83.6914 110.789 83.2533 108.855 83.2462 106.895C83.239 104.935 83.663 102.998 84.488 101.22L97.999 104.985Z" fill="#263238"/>
<path opacity="0.2" d="M97.999 104.985C97.7866 104.985 96.1464 106.383 96.0402 106.902C95.5203 108.612 94.354 110.051 92.7893 110.914C91.3969 111.545 89.2493 114.543 89.2493 114.543C89.2493 114.543 86.9365 112.602 84.5293 112.56C83.6914 110.789 83.2533 108.855 83.2462 106.895C83.239 104.935 83.663 102.998 84.488 101.22L97.999 104.985Z" fill="white"/>
<path d="M91.7572 109.705C91.6616 110.076 91.649 110.463 91.7204 110.839C91.7918 111.216 91.9454 111.572 92.1702 111.882C92.7602 112.548 93.7396 111.758 94.1585 110.625C94.5302 109.622 94.6954 108.029 93.8222 107.828C92.949 107.628 91.9755 108.613 91.7572 109.705Z" fill="#E4897B"/>
<path d="M95.0671 106.236C95.0671 106.236 95.4978 115.77 88.1641 115.853V116.23C88.1641 116.23 94.7485 116.82 96.2825 106.961L95.0671 106.236Z" fill="#263238"/>
<path d="M83.597 103.84C83.7802 104.209 84.0353 104.539 84.3473 104.808C84.6594 105.078 85.0221 105.282 85.4142 105.409C86.8302 105.935 93.5739 104.182 93.5739 104.182L94.7834 105.085C94.7834 105.085 87.9984 107.321 85.4142 106.949C82.83 106.578 83.243 104.66 83.243 104.66L83.597 103.84Z" fill="white"/>
<path d="M79.9629 116.702C80.9423 119.18 88.1639 119.835 88.1639 119.835C88.0815 119.203 88.0815 118.562 88.1639 117.929C88.2786 117.254 88.5274 116.608 88.8955 116.03C89.0894 115.702 89.3001 115.385 89.5268 115.08L84.8068 112.578C83.7212 114.543 82.6002 115.64 79.9629 116.702Z" fill="#E4897B"/>
<path d="M99.4502 107.799C99.5491 108.018 99.5789 108.261 99.5357 108.498C99.4924 108.734 99.3782 108.951 99.2083 109.121C98.6183 109.652 97.2967 109.121 97.2967 109.121C97.2967 109.121 92.7891 101.964 83.7857 102.2C83.7857 102.2 83.1249 101.274 83.2606 100.648C83.3963 100.023 84.6943 99.5921 84.6943 99.5921C86.6138 97.7511 89.0599 96.5548 91.6917 96.1701C95.9338 95.6273 100.335 100.141 100.542 101.25C100.748 102.359 99.7039 103.734 99.7039 103.734C99.8996 105.092 99.8132 106.476 99.4502 107.799Z" fill="#72BF44"/>
<path opacity="0.2" d="M99.4502 107.799C95.1491 100.471 84.7002 99.592 84.7002 99.592C85.4107 98.9067 86.2034 98.3122 87.0602 97.822C87.1428 98.7306 88.1871 99.1023 89.0308 99.1849C90.2108 99.3029 95.0134 97.9754 97.3262 99.6097C98.0007 100.083 98.5639 100.698 98.9765 101.411C99.3892 102.124 99.6414 102.919 99.7157 103.74C99.9067 105.097 99.8164 106.478 99.4502 107.799Z" fill="black"/>
<path opacity="0.2" d="M75.7853 171.956C75.2838 178.286 74.7174 184.871 74.1628 190.34C73.3545 182.44 72.3574 176.805 72.3574 176.805C72.3574 176.805 71.4311 176.044 68.8705 171.956C66.3099 167.867 68.8705 160.244 68.8705 160.244C68.7879 167.33 75.7853 171.956 75.7853 171.956Z" fill="black"/>
<path d="M101.126 238.555L100.808 240.413H93.0195V238.696L101.126 238.555Z" fill="#72BF44"/>
<path d="M60.8762 239.269L60.1269 240.986H53.041L53.1708 239.269H60.8762Z" fill="#72BF44"/>
<path d="M95.391 122.584C99.1788 124.856 102.176 127.027 102.176 127.027L99.4443 132.85L88.5352 130.945C89.3295 129.065 90.2829 127.257 91.3849 125.54C93.2847 122.561 95.391 122.584 95.391 122.584Z" fill="#72BF44"/>
<path opacity="0.4" d="M101.126 238.555L100.808 240.413H93.0195V238.696L101.126 238.555Z" fill="white"/>
<path opacity="0.4" d="M60.8762 239.269L60.1269 240.986H53.041L53.1708 239.269H60.8762Z" fill="white"/>
<path d="M62.6404 143.984L70.0508 145.388L69.5965 147.235L61.8262 145.689L62.6404 143.984Z" fill="#263238"/>
<path d="M71.2782 145.618L80.3937 147.353L80.2285 149.347L70.877 147.488L71.2782 145.618Z" fill="#263238"/>
<path d="M85.2906 148.279L85.267 150.356L81.5264 149.606L81.6385 147.583L85.2906 148.279Z" fill="#263238"/>
<path d="M63.4014 143.37C63.4014 143.37 68.1745 120.779 73.0479 115.888C73.0479 115.888 85.4379 113.64 95.3912 122.579C95.3912 122.579 86.9542 137.051 84.8715 147.547L63.4014 143.37Z" fill="#72BF44"/>
<path d="M71.2783 146.149H71.178L69.998 145.883C69.9243 145.865 69.8564 145.829 69.8006 145.777C69.7449 145.726 69.7032 145.661 69.6794 145.588C69.6553 145.516 69.6507 145.439 69.6663 145.364C69.6818 145.289 69.7169 145.22 69.7679 145.164L70.6175 144.184C70.6699 144.124 70.7375 144.079 70.8134 144.054C70.8892 144.029 70.9703 144.025 71.0482 144.043C71.1262 144.059 71.198 144.097 71.2554 144.152C71.3127 144.208 71.3534 144.278 71.3727 144.355L71.7149 145.606C71.7308 145.671 71.7319 145.739 71.7181 145.805C71.7044 145.87 71.6761 145.932 71.6353 145.985C71.5945 146.038 71.5424 146.082 71.4827 146.112C71.4229 146.143 71.3571 146.159 71.2901 146.161L71.2783 146.149ZM70.9361 144.314C70.8959 144.315 70.8578 144.332 70.8299 144.361L69.9744 145.347C69.9614 145.368 69.9545 145.392 69.9545 145.417C69.9545 145.442 69.9614 145.467 69.9744 145.488C69.9806 145.512 69.9933 145.533 70.011 145.55C70.0288 145.566 70.0508 145.578 70.0747 145.583L71.2547 145.848C71.2788 145.857 71.305 145.858 71.3295 145.85C71.354 145.843 71.3753 145.827 71.3904 145.807C71.4087 145.79 71.4218 145.768 71.428 145.744C71.4343 145.72 71.4335 145.695 71.4258 145.671L71.0895 144.42C71.0832 144.395 71.0699 144.372 71.0511 144.355C71.0323 144.337 71.0088 144.325 70.9833 144.32L70.9361 144.314Z" fill="white"/>
<path d="M78.7832 124.673C78.7224 124.673 78.6622 124.661 78.6062 124.638L77.4852 124.142C77.4164 124.111 77.3569 124.062 77.3124 124.001C77.268 123.94 77.2401 123.869 77.2315 123.794C77.2198 123.718 77.229 123.641 77.2581 123.57C77.2872 123.5 77.3352 123.438 77.3967 123.393L78.4292 122.596C78.4914 122.546 78.5665 122.515 78.6458 122.505C78.7251 122.496 78.8054 122.509 78.8776 122.543C78.9509 122.574 79.0137 122.626 79.0586 122.692C79.1035 122.758 79.1288 122.835 79.1313 122.915L79.2198 124.207C79.2255 124.283 79.211 124.359 79.1779 124.427C79.1447 124.495 79.094 124.554 79.031 124.596C78.9588 124.648 78.8719 124.675 78.7832 124.673ZM78.6947 122.797C78.6627 122.796 78.6313 122.806 78.6062 122.826L77.5796 123.623C77.5599 123.639 77.5443 123.66 77.5341 123.684C77.5238 123.707 77.5192 123.733 77.5206 123.758C77.5247 123.783 77.5349 123.806 77.5504 123.826C77.5659 123.846 77.5861 123.861 77.6091 123.871L78.7242 124.366C78.7461 124.378 78.7704 124.384 78.795 124.384C78.8197 124.384 78.8439 124.378 78.8658 124.366C78.8862 124.352 78.9025 124.332 78.9128 124.309C78.9232 124.286 78.9273 124.261 78.9248 124.236L78.8422 122.944C78.8395 122.918 78.8299 122.892 78.8144 122.871C78.7989 122.849 78.778 122.832 78.7537 122.82L78.6947 122.797Z" fill="white"/>
<path d="M77.6557 123.717C77.6557 123.717 74.1806 130.178 70.499 143.435L71.915 143.854C71.915 143.854 75.6379 130.048 78.759 124.231L77.6557 123.717Z" fill="#263238"/>
<path d="M70.8772 144.739C70.8389 144.732 70.805 144.71 70.7829 144.678C70.7608 144.646 70.7523 144.606 70.7592 144.568L70.9362 143.736C70.9447 143.697 70.9679 143.663 71.0009 143.641C71.0339 143.619 71.0741 143.611 71.1132 143.618C71.1322 143.622 71.1502 143.63 71.1662 143.641C71.1821 143.652 71.1957 143.667 71.2061 143.683C71.2165 143.7 71.2236 143.718 71.2269 143.737C71.2302 143.756 71.2296 143.776 71.2253 143.795L71.0483 144.627C71.0398 144.664 71.0172 144.696 70.9853 144.717C70.9534 144.738 70.9146 144.746 70.8772 144.739Z" fill="white"/>
<path d="M71.9801 144.001L70.4874 143.583C70.4496 143.572 70.4175 143.546 70.3977 143.512C70.3779 143.478 70.372 143.438 70.3812 143.4C70.3866 143.381 70.3956 143.364 70.4077 143.349C70.4199 143.334 70.4348 143.321 70.4518 143.312C70.4688 143.302 70.4875 143.296 70.5067 143.294C70.526 143.292 70.5455 143.294 70.5641 143.299L72.0627 143.718C72.0967 143.728 72.1261 143.75 72.1453 143.78C72.1646 143.81 72.1724 143.846 72.1674 143.881C72.1624 143.916 72.1448 143.948 72.118 143.971C72.0912 143.995 72.0569 144.007 72.0214 144.007L71.9801 144.001Z" fill="white"/>
<path d="M78.7588 122.997C81.8817 120.663 85.4754 119.036 89.2903 118.23L90.901 119.08C90.901 119.08 86.6294 119.735 78.8532 124.142L78.7588 122.997Z" fill="#263238"/>
<path d="M77.6561 123.587L78.5352 122.997C78.5352 122.997 78.6296 117.003 79.2196 115.622L78.2225 115.658C77.743 118.272 77.5531 120.931 77.6561 123.587Z" fill="#263238"/>
<path d="M123.404 120.803L125.092 124.201L125.558 123.782C125.558 123.782 129.735 123.599 130 123.11C130.266 122.62 131.281 117.705 130.59 117.434C129.9 117.162 124.649 118.985 124.449 119.033C124.248 119.08 124 120.443 124 120.443L123.404 120.803Z" fill="#72BF44"/>
<path d="M68.5938 107.882L71.0363 110.761L71.4021 110.171L72.5821 109.817L72.1161 101.197C72.1161 101.197 69.8564 102.548 69.7561 102.702C69.6558 102.855 69.0716 107.776 69.0716 107.776L68.5938 107.882Z" fill="#72BF44"/>
</svg>
